<?xml version="1.0" encoding="UTF-8" standalone="no"?>
<svg
   xmlns:dc="http://purl.org/dc/elements/1.1/"
   xmlns:cc="http://creativecommons.org/ns#"
   xmlns:rdf="http://www.w3.org/1999/02/22-rdf-syntax-ns#"
   xmlns:svg="http://www.w3.org/2000/svg"
   xmlns="http://www.w3.org/2000/svg"
   xmlns:xlink="http://www.w3.org/1999/xlink"
   xmlns:sodipodi="http://sodipodi.sourceforge.net/DTD/sodipodi-0.dtd"
   xmlns:inkscape="http://www.inkscape.org/namespaces/inkscape"
   version="1.1"
   width="345"
   height="281"
   viewBox="0 0 120 120"
   id="svg919"
   sodipodi:docname="brand.svg"
   inkscape:version="0.92.5 (2060ec1f9f, 2020-04-08)">
  <metadata
     id="metadata925">
    <rdf:RDF>
      <cc:Work
         rdf:about="">
        <dc:format>image/svg+xml</dc:format>
        <dc:type
           rdf:resource="http://purl.org/dc/dcmitype/StillImage" />
      </cc:Work>
    </rdf:RDF>
  </metadata>
  <defs
     id="defs923">
    <linearGradient
       inkscape:collect="always"
       id="linearGradient931">
      <stop
         style="stop-color:#5e81ac;"
         offset="50%"
         id="stop927" />
      <stop
         style="stop-color:#fff;stop-opacity:1;"
         offset="50%"
         id="stop929" />
    </linearGradient>
    <linearGradient
       inkscape:collect="always"
       xlink:href="#linearGradient931"
       id="linearGradient933"
       x1="0"
       y1="67.5"
       x2="135"
       y2="67.5"
       gradientUnits="userSpaceOnUse" />
  </defs>
  <sodipodi:namedview
     pagecolor="#ffffff"
     bordercolor="#666666"
     borderopacity="1"
     objecttolerance="10"
     gridtolerance="10"
     guidetolerance="10"
     inkscape:pageopacity="0"
     inkscape:pageshadow="2"
     inkscape:window-width="1920"
     inkscape:window-height="1034"
     id="namedview921"
     showgrid="false"
     inkscape:zoom="2.9679715"
     inkscape:cx="172.5"
     inkscape:cy="140.5"
     inkscape:window-x="1920"
     inkscape:window-y="23"
     inkscape:window-maximized="1"
     inkscape:current-layer="svg919" />
  <svg
     version="1.1"
     viewBox="0 0 135 140"
     width="100"
     height="100"
     style="fill:url(#linearGradient933);fill-opacity:1"
     x="10"
     y="10"
     id="svg909">
    <svg
       width="135"
       height="135"
       viewBox="0 0 135 135"
       version="1.1"
       id="svg907"
       style="fill:url(#linearGradient933);fill-opacity:1">
      <path
         d="M 67.5,0 C 30.2732,0 0,30.2732 0,67.5 0,104.727 30.2732,135 67.5,135 104.727,135 135,104.727 135,67.5 135,30.2732 104.714,0 67.5,0 Z m -9.8223,92.0887 c -0.0264,-0.0132 -0.0528,-0.0264 -0.0793,-0.0396 -0.0661,-0.0794 -0.1454,-0.1455 -0.2115,-0.2248 -0.1983,-0.1983 -0.3834,-0.3966 -0.5817,-0.5949 -0.1983,-0.2115 -0.3966,-0.4362 -0.5816,-0.6609 -0.3834,-0.4892 -0.6214,-1.203 -0.8461,-1.7847 -0.4759,-1.203 -1.0576,-2.3531 -1.6525,-3.5165 -0.2776,-0.542 -0.542,-1.1236 -0.8725,-1.6392 -0.0132,-0.1058 -0.0132,-0.2247 -0.0264,-0.3305 0.0264,-0.0132 0.0529,-0.0265 0.0793,-0.0397 0.8196,-0.5023 1.1105,-1.4013 1.0444,-2.3002 0.0925,0.1058 0.185,0.2115 0.2908,0.3041 0.2247,0.2115 0.4759,0.1189 0.6874,-0.0662 0.0132,0.0133 0.0265,0.0133 0.0397,0.0133 0.0264,0.3833 0.0793,0.7667 0.0925,1.1237 0.0132,0.3569 0.0529,0.8196 0.3437,1.0708 0.4098,0.3569 0.9915,-0.0794 1.3088,-0.3438 0.1454,-0.1189 0.2644,-0.2644 0.3834,-0.4098 0.5816,0.4231 1.084,0.8064 1.2955,0.9651 1.6657,1.2955 2.948,2.7232 3.9263,4.6401 0.727,1.4145 0.965,2.1152 0.9518,3.6619 -0.0132,1.3219 0.1322,3.1595 -0.1587,4.3889 -0.1982,-0.0661 -0.3701,-0.1718 -0.5287,-0.2908 -0.1322,-0.1058 -0.2512,-0.2248 -0.357,-0.3569 0,-0.0133 -0.0132,-0.0133 -0.0132,-0.0265 C 62.0799,95.473 61.9609,95.3143 61.8419,95.1557 61.7759,95.0632 61.7098,94.9706 61.6304,94.8781 61.604,94.8384 61.5776,94.812 61.5379,94.7723 61.4321,94.6534 61.3396,94.5344 61.2206,94.4418 60.4142,93.7544 59.5417,93.1463 58.6296,92.6175 58.3255,92.4192 57.995,92.2606 57.6777,92.0887 Z M 50.116,87.5279 c -0.0661,-0.1983 -0.1586,-0.3966 -0.2776,-0.5817 0,-0.0132 0.0132,-0.0264 0.0132,-0.0396 0,-0.0265 0.0133,-0.0529 0.0133,-0.0793 0.0132,0 0.0264,-0.0133 0.0264,-0.0133 0.6478,0.119 1.3088,0.119 1.9433,-0.0925 0.5685,-0.1851 0.8461,-0.661 0.9783,-1.1898 0.3966,0.8593 0.6213,1.7979 0.9386,2.6836 0.0132,0.0265 0.0132,0.0397 0.0264,0.0661 0.1983,0.7932 0.4363,1.5732 0.7403,2.3399 -0.1454,-0.0661 -0.2908,-0.1454 -0.4362,-0.2115 -0.1851,-0.0925 -0.3966,-0.1983 -0.6081,-0.304 -0.1719,-0.0794 -0.3438,-0.1719 -0.5156,-0.2644 -0.0661,-0.0397 -0.1322,-0.0661 -0.2115,-0.1058 -0.238,-0.119 -0.4759,-0.2512 -0.7271,-0.3834 C 51.9932,89.339 51.9668,89.3258 51.9404,89.2994 51.8875,89.2729 51.8478,89.2465 51.7949,89.22 51.5967,89.1011 51.3984,88.9953 51.1868,88.8631 51.0943,88.8102 50.9885,88.7441 50.896,88.678 50.7109,88.5591 50.5259,88.4401 50.3408,88.3211 50.2879,88.2814 50.2218,88.2418 50.1689,88.2021 50.1425,88.1889 50.116,88.1625 50.0896,88.1492 50.0632,88.136 50.0499,88.1228 50.0235,88.0964 50.0103,88.0831 49.9971,88.0699 49.9838,88.0567 50.116,87.9113 50.1821,87.7262 50.116,87.5279 Z m 11.6334,-4.6005 c -0.7006,-0.6742 -1.4277,-1.3219 -2.1548,-1.9697 -0.238,-0.1983 -0.4627,-0.4098 -0.7007,-0.6081 -0.1982,-0.1719 -0.3833,-0.3437 -0.5816,-0.5156 0.0132,0.0132 0.0132,0.0132 0.0264,0.0265 -0.0264,-0.0265 -0.0529,-0.0529 -0.0925,-0.0794 0.0529,-0.1586 0.0925,-0.3172 0.1454,-0.4891 0.3041,0.5685 0.7271,0.9915 1.2955,0.8725 0.8064,-0.1586 1.0841,-1.1369 1.2163,-1.8111 0.066,-0.3569 0.1454,-0.7403 0.1982,-1.1369 0.4627,-0.0397 0.8858,-0.304 1.1502,-0.6874 -0.0661,0.3966 -0.1058,0.8064 -0.1719,1.1633 -0.1454,0.6874 -0.5156,2.4985 0.6478,2.4192 0.5023,-0.0264 0.9386,-0.6213 1.2294,-0.9782 0.1719,-0.1983 0.3173,-0.4231 0.4627,-0.6478 0.0925,0.3569 0.1851,0.7271 0.2644,1.084 0,0.0132 0,0.0265 0,0.0397 0.2644,1.3087 0.3569,2.6439 0.5156,3.9791 0,0.0265 0.0132,0.0529 0.0132,0.0793 v -0.0132 c 0,0.0529 0.0132,0.1058 0.0264,0.1454 0.0132,0.1058 0.0397,0.2116 0.0529,0.3305 0.0397,0.1587 0.0793,0.3041 0.119,0.4627 0,0.0132 0.0132,0.0265 0.0132,0.0529 0.0397,0.1454 0.0793,0.3041 0.1058,0.4495 0.0396,0.1586 0.0661,0.3173 0.0793,0.4891 0.0396,0.3966 -0.0265,0.8857 -0.0661,1.2559 C 65.5303,86.8273 65.5303,86.814 65.517,86.8008 65.0544,86.2456 64.5123,85.7432 64.0232,85.2145 63.2829,84.4477 62.5294,83.681 61.7494,82.9274 Z m 4.0717,-4.4947 c 0.3569,-0.1983 0.6478,-0.5023 0.8989,-0.8328 0.0133,0.5156 0.1322,1.0972 0.5288,1.3748 -0.1322,0.9122 -0.3834,1.8508 -0.6874,3.3314 -0.0132,0.0397 -0.0132,0.0926 -0.0264,0.1322 -0.3305,-0.5817 -0.2777,-1.3616 -0.3173,-2.0226 -0.0397,-0.6874 -0.1719,-1.3352 -0.3966,-1.983 z m 3.6619,0.8329 c 0.4627,-0.1322 0.7271,-0.4098 1.084,-0.7007 0.0793,-0.0661 0.1718,-0.1322 0.2512,-0.1983 0.0661,0.6214 0.4626,1.0973 1.0047,1.441 0.3701,0.2379 0.8328,0.1718 1.2294,0 -0.4759,0.5156 -0.9651,1.0179 -1.322,1.626 -0.7403,1.2559 -1.203,2.6572 -1.5863,4.0717 -0.3173,1.1765 -0.3834,2.7497 -0.9783,3.8205 0.0793,-0.1454 -0.4098,-1.4277 -0.4627,-1.5996 -0.1851,-0.7403 0,-1.5996 -0.119,-2.3531 -0.1057,-0.5949 -0.1322,-1.1898 -0.1454,-1.7847 0,-0.3305 0,-0.661 0,-0.9915 0,-0.1718 0.0132,-0.3437 0.0132,-0.5155 0.0132,-0.3966 0.0397,-0.7932 0.0529,-1.203 0.0132,-0.4363 0.0529,-0.8593 0.0925,-1.2691 0.0265,-0.3305 0.0661,-0.661 0.1058,-0.9915 0.1851,-0.1851 0.3569,-0.3834 0.4891,-0.5817 -0.0925,0.2248 -0.1718,0.4627 -0.2379,0.7139 -0.0661,0.3041 0.2115,0.6081 0.5288,0.5156 z m 7.0593,1.7582 c 0.0793,0.0132 0.1719,0.0264 0.2644,0.0264 -0.5288,0.4495 -1.084,0.8593 -1.6657,1.2295 -0.7535,0.4759 -1.5996,0.7535 -2.3531,1.2294 0.0661,-0.2247 0.1454,-0.4362 0.2115,-0.661 0.0793,-0.2379 0.1454,-0.4759 0.238,-0.7006 0.1586,-0.4363 0.3305,-0.8593 0.5155,-1.2691 0.0529,-0.119 0.119,-0.238 0.1983,-0.3437 0.3305,0.1586 0.8064,0.0396 1.2427,-0.2115 0.3437,-0.2116 0.661,-0.4627 0.9518,-0.7404 -0.2776,0.5949 -0.4098,1.2824 0.3966,1.441 z m 3.2785,1.5203 c 0.5288,0.2379 1.1633,0.3437 1.7847,0.4098 0,0.0132 0,0.0264 0,0.0529 -0.1851,0.1189 -0.3702,0.2511 -0.5288,0.4098 -0.1851,0.185 -0.4098,0.5949 -0.1587,0.8196 0.2776,0.2644 0.6478,0.3437 1.018,0.4098 0.0528,0.2644 0.0793,0.5156 0.0925,0.78 0.0397,0.8196 -0.4891,1.8375 -0.7139,2.6307 -0.2379,0.8725 -0.4494,1.7053 -1.0179,2.4324 -0.5552,0.7271 -1.3616,1.1898 -2.1019,1.6922 -1.7715,1.1765 -3.4239,2.3927 -4.931,3.913 -0.6478,0.6478 -1.322,1.2559 -1.8772,1.9962 -0.1058,0.1322 -0.1983,0.2776 -0.2908,0.423 v 0.0132 c 0.0132,-0.6477 0.0529,-1.2955 0.1189,-1.9433 0.0265,-0.2644 0.0661,-0.5155 0.1058,-0.7799 -0.0793,-1.0444 -0.1058,-2.102 -0.0264,-3.1595 0.0925,-1.2956 0.2644,-2.6308 0.5684,-3.9131 0.0529,-0.7403 0.1322,-1.4806 0.2512,-2.2209 0.0397,-0.1322 0.0925,-0.2644 0.1454,-0.3834 0.2776,-0.7667 0.7271,-1.2823 1.3881,-1.745 1.2162,-0.8725 2.6704,-1.3352 3.8998,-2.2077 0.6213,-0.4362 1.1633,-0.9915 1.6657,-1.5864 0.1454,-0.0396 0.2776,-0.0793 0.4098,-0.1189 -0.3569,0.3966 -0.661,0.8725 -0.6345,1.3484 0,0.4627 0.4891,0.5817 0.8328,0.7271 z m -1.084,47.4719 c -0.7932,-0.344 -1.5864,-0.727 -2.3531,-1.071 -1.0973,-0.489 -2.2606,-1.216 -2.8687,-2.287 -0.1322,-0.238 -0.2248,-0.489 -0.2908,-0.753 -0.238,-0.463 -0.3966,-0.992 -0.5156,-1.494 -0.357,-1.533 -0.3834,-3.133 -0.3966,-4.693 -0.0265,-2.961 -0.3834,-5.909 -0.6213,-8.857 -0.2116,-2.631 -0.3966,-5.315 -0.3438,-7.972 0.6082,-1.295 1.5203,-2.419 2.4854,-3.4765 1.6656,-1.8508 3.133,-3.0009 4.6004,-3.9924 0.357,-0.3702 0.7932,-0.661 1.2162,-0.9518 0.3834,-0.2644 0.7668,-0.5024 1.1634,-0.7536 0.2247,-0.0396 0.4495,-0.0661 0.6874,-0.0661 0.238,-0.0132 0.4759,1e-4 0.7271,0.0397 0.8857,0.1322 1.7582,0.2644 2.6439,0.3702 0.4892,0.0528 0.9915,0.0793 1.4939,0.0925 -0.0926,0.3305 -0.1719,0.6742 -0.1719,0.9915 0,0.1983 0.1851,0.3834 0.3834,0.3834 0.9518,-0.0397 1.8375,-0.4099 2.6968,-0.8461 -0.1718,0.4098 -0.304,0.8328 -0.3569,1.2426 -0.0265,0.2644 0.0661,0.4892 0.3569,0.5156 1.0047,0.1058 1.745,-0.7403 2.4192,-1.3616 0.1058,0.7932 0.3437,1.8904 1.0973,2.2341 1.0972,0.5156 1.7053,-0.9915 1.8772,-1.7846 0.2511,0.5023 0.6213,0.9386 1.0708,1.2162 0.3701,0.2247 0.8725,-0.2909 1.0047,-0.5685 0.0528,-0.0925 0.0661,-0.1983 0.1057,-0.304 0,0.0132 0.0132,0.0132 0.0132,0.0264 0.0397,-0.0925 0.0529,-0.1983 0.0794,-0.3041 0.0132,-0.0661 0.0396,-0.1189 0.0528,-0.185 0.0397,-0.2248 0.0794,-0.4495 0.0794,-0.6742 0.423,0.5552 1.1236,0.9121 1.7714,0.5155 0.6874,-0.423 0.7668,-1.2294 0.6874,-1.9697 0.4756,-0.3966 0.8196,-0.9122 1.0046,-1.4938 0.053,0 0.093,0 0.146,0 0.356,0.2511 0.74,0.4362 1.15,0.4627 0.687,0.0661 1.031,-0.357 1.216,-0.8725 0.119,-0.0529 0.238,-0.1058 0.344,-0.1719 0.357,0.4098 0.806,0.6874 1.374,0.5552 0.556,-0.1322 0.979,-0.6213 1.19,-1.1237 0.066,-0.1454 0.106,-0.2908 0.146,-0.4494 0.198,0.2512 0.436,0.4891 0.7,0.6742 0.939,0.661 2.234,0.8857 3.173,0.0925 0.833,-0.7138 0.344,-2.0226 0.119,-2.8819 -0.079,-0.2908 -0.132,-0.5817 -0.198,-0.8857 1.11,0.0793 2.34,0 3.305,-0.542 1.652,-0.9386 0.158,-2.9745 -0.913,-3.7148 -0.171,-0.1189 -0.647,-0.3569 -1.163,-0.5287 0.846,-0.5949 1.573,-1.4146 2.102,-2.3135 0.106,-0.1851 0.198,-0.4759 -0.053,-0.5817 -0.37,-0.1718 -0.819,-0.2776 -1.295,-0.3172 0.938,-0.6214 1.771,-1.4807 2.3,-2.4589 0.106,-0.1983 0.053,-0.4098 -0.119,-0.5156 -0.317,-0.1851 -0.648,-0.3437 -0.978,-0.4627 0.383,-0.1322 0.74,-0.3305 1.07,-0.5949 0.582,-0.4891 0.595,-1.2294 0,-1.6789 -0.211,-0.1586 -0.449,-0.2908 -0.713,-0.3834 0.925,-0.5023 1.705,-1.3219 2.088,-2.3002 0.066,-0.1718 0.093,-0.423 -0.119,-0.5023 -0.885,-0.357 -1.877,-0.5024 -2.815,-0.3702 0.449,-0.4891 0.713,-1.0708 0.515,-1.8375 -0.344,-1.2956 -1.89,-1.1634 -3.067,-0.8461 0.146,-0.3305 0.278,-0.6742 0.41,-1.0179 0.198,-0.5817 0.568,-1.5335 0.172,-2.102 -0.04,-0.0528 -0.08,-0.1057 -0.132,-0.1454 -0.027,-0.0132 -0.04,-0.0264 -0.067,-0.0396 -0.026,-0.0133 -0.052,-0.0397 -0.092,-0.0529 -0.026,-0.0132 -0.053,-0.0132 -0.079,-0.0132 -0.027,0 -0.066,-0.0132 -0.093,-0.0132 -0.026,0 -0.053,0 -0.079,0 -0.027,0 -0.066,0 -0.093,0.0132 -0.013,0 -0.026,0 -0.026,0 -0.013,0 -0.04,0.0132 -0.053,0.0132 -0.013,0 -0.013,0.0132 -0.027,0.0132 -0.092,0.0265 -0.171,0.0529 -0.264,0.0926 -0.013,0.0132 -0.04,0.0132 -0.053,0.0264 -0.092,0.0396 -0.172,0.0925 -0.264,0.1454 -0.04,-0.0132 -0.08,-0.0264 -0.119,-0.0264 0.145,-0.0794 0.211,-0.238 0.185,-0.4627 -0.132,-1.0047 -1.084,-1.9169 -1.943,-2.5514 l 0.013,-0.0133 c 0.304,-0.2643 0.595,-0.5684 0.859,-0.8725 0.569,-0.6477 1.15,-1.2955 0.41,-2.0622 -0.476,-0.5024 -1.547,-0.8197 -2.221,-0.9254 -0.04,-0.0132 -0.093,-0.0132 -0.132,-0.0265 0.211,-0.2511 0.423,-0.5155 0.608,-0.7799 0.251,-0.3834 0.436,-0.7932 0.542,-1.2295 0.198,-0.3172 0.37,-0.6345 0.529,-0.965 0.41,-0.8593 0.674,-2.0094 -0.251,-2.6572 -0.595,-0.4098 -1.481,-0.4759 -2.182,-0.4627 -0.357,0.0133 -0.727,0.0397 -1.084,0.119 0,-0.0529 0,-0.119 0,-0.1718 0.013,-0.9783 0.172,-1.983 -0.092,-2.9348 -0.08,-0.2909 -0.41,-0.7271 -0.767,-0.6478 -0.687,0.1586 -1.824,0.899 -2.287,1.745 -0.04,-0.5552 -0.106,-1.0972 -0.198,-1.6392 -0.066,-0.3702 -0.437,-0.6742 -0.794,-0.6742 -0.3961,0 -0.7927,0.1057 -1.1761,0.2247 0.238,-0.4363 0.4495,-0.8857 0.6082,-1.3616 0.185,-0.5156 -0.3966,-1.0047 -0.8593,-1.0312 -0.357,-0.0132 -0.9386,0.0132 -1.4674,0.1587 0.3172,-1.0047 0.2247,-2.3796 -0.0529,-2.9877 -0.1322,-0.2776 -0.4627,-0.5684 -0.7932,-0.4495 -0.3966,0.1322 -0.7535,0.3173 -1.0972,0.542 -0.119,-0.3172 -0.2644,-0.6213 -0.3966,-0.8725 -0.3041,-0.6081 -0.7535,-2.0622 -1.6657,-1.9829 -0.4495,0.0396 -0.7668,0.4098 -1.0444,0.7271 -0.3437,0.3966 -0.6742,0.8196 -0.9518,1.2691 -0.2512,0.423 -0.4627,0.8592 -0.6345,1.3087 -0.1851,-0.5023 -0.4099,-0.965 -0.5817,-1.3352 -0.4627,-0.965 -0.8064,-2.0094 -1.4938,-2.8554 -0.3041,-0.3702 -0.8461,-0.8858 -1.3749,-0.7007 -0.2776,0.0925 -0.4759,0.3966 -0.6345,0.6742 -0.1719,-0.3305 -0.3966,-0.6213 -0.6742,-0.8593 -0.9651,-0.8064 -2.3135,-0.2776 -3.2389,0.3173 -0.3437,0.2115 -0.661,0.4759 -0.965,0.7271 -0.0661,0.0396 -0.1058,0.0925 -0.1587,0.1454 -0.1718,0.1454 -0.3437,0.3041 -0.5155,0.4495 0.0661,-0.3305 0.1322,-0.661 0.1454,-1.0047 0.0264,-0.8064 -0.5156,-1.4278 -1.2823,-1.6128 -1.0444,-0.238 -2.1416,0.3437 -2.948,1.1501 -0.6875,-1.084 -2.4721,-1.0179 -3.9131,-0.6742 0.3437,-1.2559 -0.1586,-2.6175 -1.7714,-2.5514 -0.5817,0.0264 -1.084,0.2776 -1.4806,0.661 -0.0926,-0.4627 -0.2115,-0.9254 -0.3702,-1.3352 -0.4759,-1.2824 -1.7582,-2.0094 -3.0141,-1.1898 -1.0972,0.7271 -1.3352,2.3795 -1.4938,3.5561 -0.0529,0.3437 -0.0793,0.6742 -0.1058,1.0179 -0.0396,-0.0396 -0.0661,-0.0661 -0.1057,-0.1057 -0.2248,-0.3041 -0.5024,-0.5685 -0.8461,-0.6875 -1.0972,-0.3833 -1.7318,0.238 -2.168,1.0576 -0.4627,-0.965 -1.0708,-1.9169 -2.1152,-1.8508 0.1058,-1.3748 -0.2776,-2.7629 -1.8375,-2.5117 -0.9651,0.1586 -1.5864,1.1898 -1.983,1.983 -0.0264,0.0661 -0.0529,0.1189 -0.0925,0.185 -0.3702,-1.084 -1.0576,-1.9829 -2.1549,-1.7185 -1.2294,0.2908 -1.3748,1.5335 -1.3748,2.7365 -0.6742,-0.5817 -1.5203,-0.8197 -2.3135,-0.0794 -0.6874,0.6346 -0.727,1.5864 -0.5155,2.5382 -0.5156,-0.1983 -1.0576,-0.1851 -1.5996,0.2512 -0.6213,0.5023 -0.7007,1.3088 -0.5156,2.1284 -1.0576,-0.3834 -2.2341,-0.357 -3.1463,0.3701 -0.3966,0.3173 -0.6345,0.7271 -0.7667,1.1634 -0.3173,0.5949 -0.5685,1.2162 -0.8461,1.8243 -0.1586,0.3437 -0.3701,0.78 -0.5552,1.2559 -0.1587,-0.4231 -0.357,-0.8461 -0.5949,-1.2427 -0.2512,-0.4362 -0.5685,-0.8196 -0.899,-1.1898 -0.2643,-0.304 -0.5552,-0.661 -0.9782,-0.6874 -0.8593,-0.0661 -1.2823,1.2955 -1.5732,1.8772 -0.1189,0.238 -0.2511,0.5288 -0.3701,0.8329 -0.3173,-0.2116 -0.661,-0.3834 -1.0312,-0.5156 -0.3172,-0.1058 -0.6213,0.1586 -0.7535,0.423 -0.2644,0.5817 -0.3437,1.864 -0.0529,2.8158 -0.5023,-0.1322 -1.0443,-0.1586 -1.388,-0.1454 -0.4363,0.0132 -0.9915,0.4891 -0.8197,0.965 0.1587,0.4363 0.357,0.8593 0.5817,1.2824 -0.3701,-0.1058 -0.7271,-0.2116 -1.1104,-0.2116 -0.3438,0 -0.7007,0.2909 -0.7536,0.6346 -0.0925,0.5156 -0.1454,1.0311 -0.185,1.5467 -0.4231,-0.7932 -1.5071,-1.4938 -2.1549,-1.6392 -0.3437,-0.0794 -0.6477,0.3437 -0.7271,0.6081 -0.2511,0.8989 -0.1057,1.8507 -0.0925,2.7761 0,0.0529 0,0.1058 0,0.1586 -0.3305,-0.0793 -0.6874,-0.1057 -1.0179,-0.1057 -0.661,-0.0132 -1.4938,0.0529 -2.0491,0.4362 -0.8725,0.6081 -0.6213,1.6922 -0.2379,2.4986 0.1454,0.304 0.3172,0.6081 0.5023,0.9121 0.0926,0.4099 0.2644,0.7932 0.5024,1.1502 0.1718,0.2643 0.3701,0.5023 0.5816,0.7403 -0.0528,0.0132 -0.0925,0.0132 -0.1322,0.0264 -0.6213,0.1058 -1.6392,0.3834 -2.0887,0.8725 -0.6874,0.7271 -0.1454,1.3352 0.3966,1.9433 0.2512,0.2776 0.5156,0.5552 0.8064,0.8196 0,0 0.0132,0 0.0132,0.0132 -0.8196,0.5949 -1.7185,1.4542 -1.8375,2.406 -0.0397,0.357 0.1586,0.5421 0.5023,0.5024 0.6875,-0.0661 1.4674,-0.0397 2.2606,-0.0397 -0.1057,0.2115 -0.1983,0.4363 -0.2776,0.6346 -0.119,0.3173 -0.2644,0.7271 -0.2908,1.1104 -0.4231,-0.5023 -0.9518,-0.7667 -1.5071,-0.3701 -0.5949,0.4098 -0.5816,1.0179 -0.5023,1.6525 -0.238,-0.1983 -0.4759,-0.4099 -0.7007,-0.6346 -0.2511,-0.238 -0.6345,0.1851 -0.6345,0.4363 0,0.6345 -0.1058,1.3616 0.1851,1.9433 0.0528,0.1057 0.1057,0.2776 0.1983,0.423 -1.0708,0.1983 -2.1152,0.6081 -2.9084,1.3087 -0.119,0.1058 -0.2379,0.3702 -0.0925,0.4892 0.5023,0.4494 1.084,0.9254 1.7185,1.2294 -0.2379,0.1851 -0.4759,0.3834 -0.7006,0.5817 -0.8989,0.7932 -1.8508,1.7318 -2.1548,2.9348 -0.0265,0.1322 0.0132,0.2908 0.1454,0.3437 0.78,0.2908 1.6789,0.2512 2.5117,0.1586 -0.2776,0.3702 -0.4891,0.7668 -0.5684,1.2559 -0.0132,0.119 0,0.304 0.1454,0.3437 0.2908,0.0793 0.5685,0.0661 0.8461,0.0264 0.0132,0 0.0396,0 0.0529,-0.0132 -0.4495,0.8064 -0.7404,1.6789 -0.7932,2.644 -0.0132,0.1454 0.1189,0.2115 0.2379,0.2379 0.7403,0.1454 1.5996,-0.3966 2.3135,-0.7271 -0.0397,0.2115 -0.0661,0.4231 -0.0926,0.6346 -0.1189,1.0311 -0.0925,2.2473 0.1719,3.252 0.2776,1.0708 1.322,0.7536 2.0491,0.3041 0.0925,-0.0529 0.185,-0.119 0.2776,-0.1983 -0.0132,0.2247 -0.0265,0.4495 0,0.6742 0.0132,0.119 0.1057,0.238 0.2379,0.238 0.5817,-0.0265 0.9386,-0.357 1.3881,-0.6346 -0.3041,0.6742 -0.5817,1.3617 -0.5817,2.1284 0,0.1586 0.1587,0.2379 0.3041,0.1983 0.6874,-0.1851 1.3748,-0.5552 2.0358,-0.8461 0.0529,-0.0264 0.0926,-0.0529 0.1454,-0.0793 0.0397,0.3305 0.3305,0.5685 0.7007,0.7535 -0.1454,0.0926 -0.2908,0.1851 -0.4495,0.2776 -0.6081,0.3702 -1.2955,0.8064 -1.5731,1.4939 -0.0397,0.1057 -0.0793,0.304 0.0264,0.3833 1.1501,0.8064 2.644,0.9915 4.0188,0.9386 0.2644,-0.0132 0.542,-0.0396 0.8196,-0.0793 -0.0396,0.3041 -0.0528,0.6214 -0.0264,0.9386 0.0661,0.9386 0.5817,2.6175 1.4806,3.067 0.4891,0.2512 1.0708,-0.2644 1.4013,-0.5684 0.5023,-0.476 0.9783,-1.0047 1.3616,-1.5864 0.0133,0.0793 0.0265,0.1454 0.0529,0.2115 -0.0132,0.2115 0.1058,0.3966 0.3173,0.4363 0.1983,0.1322 0.4759,0.1718 0.8725,0.0661 0.6345,-0.1719 1.1765,-0.542 1.6525,-0.9915 0.0396,1.2691 0.3833,2.3134 1.4541,2.1416 1.5203,-0.238 2.5911,-2.1152 3.1199,-3.3843 0.0793,-0.1983 0.1718,-0.4494 0.2512,-0.7271 0.0925,0.0397 0.1718,0.0794 0.2511,0.1058 0.7007,0.2776 1.56,0.4495 2.1681,-0.119 0.7667,-0.7138 0.2379,-1.6128 -0.2248,-2.3267 -0.0132,-0.0264 -0.0264,-0.0396 -0.0396,-0.0661 0.0396,0.0265 0.0793,0.0529 0.119,0.0794 0.0132,0.0132 0.0396,0.0264 0.0528,0.0396 0.7932,0.5288 1.7186,1.1237 2.5647,1.6789 0.2115,0.1322 0.423,0.2776 0.6213,0.4098 0.0397,0.0265 0.0793,0.0529 0.119,0.0794 0.2379,0.1586 0.4759,0.3305 0.6874,0.4759 0.9122,0.4759 1.8508,0.9254 2.8158,1.2955 0.7139,0.2776 1.4542,0.5156 2.1548,0.8461 0.5817,0.2776 1.1237,0.6345 1.6128,1.0576 0.7668,0.4362 1.4939,0.965 2.1548,1.5731 0.6743,0.5156 1.2691,1.0972 1.7451,1.7714 0.0925,0.1322 0.1982,0.2644 0.2908,0.3966 0.0264,0.0265 0.0396,0.0661 0.0661,0.0926 0.0793,0.119 0.1586,0.2379 0.2379,0.3569 0.0265,0.0529 0.0529,0.1058 0.0926,0.1586 0.0529,0.1058 0.1057,0.2116 0.1454,0.3041 0.0264,0.0661 0.0397,0.1322 0.0661,0.1983 0.0397,0.1454 0.0793,0.2776 0.0793,0.423 0,0.106 0,0.212 -0.0132,0.304 0.0793,1.507 0.1718,3.014 0.2247,4.521 0.0132,0.212 0.0133,0.423 0.0133,0.635 0.304,1.573 0.1189,3.318 -0.0265,4.825 -0.3305,3.411 0.1586,6.861 -0.542,10.232 -0.3173,1.534 -0.5156,3.08 -0.661,4.653 -0.1322,1.415 -0.4891,2.697 -1.5467,3.689 -0.7535,0.714 -1.6392,1.163 -2.5778,1.48 C 27.6954,125.971 3.96592,99.4521 3.96592,67.5 3.96592,32.4677 32.4677,3.96592 67.5,3.96592 c 35.032,0 63.534,28.50178 63.534,63.53408 0,31.1986 -22.619,57.189 -52.2972,62.516 z m 5.8034,-40.9017 c -0.185,0.1322 -0.6081,0.661 -0.3701,0.9254 -0.4363,0.2115 -0.8725,0.4494 -1.322,0.6477 0.0265,-0.0661 0.0529,-0.1322 0.0793,-0.1983 0.0265,-0.0529 0.0397,-0.0925 0.0661,-0.1454 0.119,-0.2908 0.2512,-0.5817 0.357,-0.8857 0.2115,-0.5685 0.3172,-1.203 0.4098,-1.8111 0.542,0.3966 1.2162,0.6345 1.8243,0.8593 -0.4891,0.2644 -0.9122,0.5155 -1.0444,0.6081 z m 2.3796,3.7544 c -0.0132,0.0132 -0.0132,0.0264 -0.0132,0.0396 -1.3749,-0.0661 -2.7365,-0.2115 -4.1114,-0.2643 0.3834,-0.1851 0.7668,-0.3438 1.1502,-0.5156 0.4098,-0.1719 0.8328,-0.3305 1.2426,-0.4891 0.2644,0.6874 0.9651,1.0575 1.7318,1.2294 z m -3.9791,-7.5221 c -0.0265,0.1058 -0.0529,0.2116 -0.0794,0.3173 -0.0264,0.0397 -0.1057,0.0265 -0.1057,-0.0396 0,-0.3041 -0.0397,-0.5949 -0.0926,-0.8858 0.1455,0.0265 0.2777,0.0397 0.4231,0.0661 -0.0529,0.1851 -0.1058,0.3702 -0.1454,0.542 z M 107.516,64.6313 c 0.079,-0.1718 0.159,-0.3437 0.185,-0.5156 0.251,0 0.476,0.0133 0.714,0.0265 -0.053,0.0132 -0.106,0.0396 -0.172,0.0529 -0.251,0.1189 -0.489,0.2776 -0.727,0.4362 z"
         id="path905"
         inkscape:connector-curvature="0"
         style="fill:url(#linearGradient933);fill-opacity:1" />
    </svg>
  </svg>
  <text
     fill="#5e81ac"
     font-family="Ubuntu"
     font-size="32px"
     x="60"
     y="110"
     id="text913">
    <tspan
       dy="23.400000000000002"
       x="60"
       id="tspan911" />
  </text>
  <text
     fill="#ffffff"
     font-family="Verdana"
     font-size="16px"
     x="60"
     y="110"
     id="text917">
    <tspan
       dy="23.400000000000002"
       x="60"
       id="tspan915" />
  </text>
</svg>
