<svg xmlns="http://www.w3.org/2000/svg" version="1.1"
	xmlns:xlink="http://www.w3.org/1999/xlink"
	xmlns:svgjs="http://svgjs.com/svgjs" width="765" height="625" viewBox="0 0 300 300" class="svg-animations " style="background-color: rgb(46, 46, 46);">
	<svg xmlns="http://www.w3.org/2000/svg" version="1.1"
		xmlns:xlink="http://www.w3.org/1999/xlink"
		xmlns:svgjs="http://svgjs.com/svgjs" viewBox="0 0 163.01300048828125 139" width="100" height="100" x="100" y="83.74000072479248" style="fill: rgb(255, 255, 255);">
		<svg width="163" height="134" viewBox="0 0 163 134"
			xmlns="http://www.w3.org/2000/svg">
			<g clip-path="url(#clip0)">
				<path d="M79.703 44.9371H140.585C144.773 44.9371 148.192 41.5127 148.192 37.3167C148.192 33.1207 144.773 29.6963 140.585 29.6963H79.703C75.5145 29.6963 72.0962 33.1207 72.0962 37.3167C72.0962 41.5127 75.5145 44.9371 79.703 44.9371Z"></path>
				<path d="M96.5243 15.2408H125.763C129.951 15.2408 133.37 11.8164 133.37 7.6204C133.37 3.42444 129.938 0 125.763 0H96.5243C92.3358 0 88.9175 3.42444 88.9175 7.6204C88.9175 11.8164 92.3358 15.2408 96.5243 15.2408Z"></path>
				<path d="M37.2506 15.2408H66.489C70.6775 15.2408 74.0959 11.8164 74.0959 7.6204C74.0959 3.42444 70.664 0 66.489 0H37.2506C33.0622 0 29.6438 3.42444 29.6438 7.6204C29.6438 11.8164 33.0622 15.2408 37.2506 15.2408Z"></path>
				<path d="M48.8432 44.5182H55.6123C59.8008 44.5182 63.2192 41.0937 63.2192 36.8977C63.2192 32.7018 59.8008 29.2773 55.6123 29.2773H48.8432C44.6547 29.2773 41.2363 32.7018 41.2363 36.8977C41.2363 41.0937 44.6547 44.5182 48.8432 44.5182Z"></path>
				<path d="M155.393 59.3799H94.5248C90.3363 59.3799 86.918 62.8043 86.918 67.0003C86.918 71.1962 90.3363 74.6207 94.5248 74.6207H155.407C159.595 74.6207 163.013 71.1962 163.013 67.0003C163 62.8043 159.582 59.3799 155.393 59.3799Z"></path>
				<path d="M78.0277 66.5804C78.0277 62.3844 74.6093 58.96 70.4208 58.96H52.059C47.8705 58.96 44.4521 62.3844 44.4521 66.5804C44.4521 70.7763 47.8705 74.2008 52.059 74.2008H70.4208C74.6093 74.2008 78.0277 70.7763 78.0277 66.5804Z"></path>
				<path d="M33.5755 66.5804C33.5755 62.3844 30.1572 58.96 25.9687 58.96H7.60685C3.41835 58.96 0 62.3844 0 66.5804C0 70.7763 3.41835 74.2008 7.60685 74.2008H25.9687C30.1572 74.2008 33.5755 70.7763 33.5755 66.5804Z"></path>
				<path d="M140.571 89.0762H79.703C75.5145 89.0762 72.0962 92.5006 72.0962 96.6966C72.0962 100.893 75.5145 104.317 79.703 104.317H140.585C144.773 104.317 148.192 100.893 148.192 96.6966C148.192 92.5006 144.76 89.0762 140.571 89.0762Z"></path>
				<path d="M125.763 118.759H96.5243C92.3358 118.759 88.9175 122.183 88.9175 126.379C88.9175 130.575 92.3358 134 96.5243 134H125.763C129.951 134 133.37 130.575 133.37 126.379C133.37 122.183 129.938 118.759 125.763 118.759Z"></path>
				<path d="M66.489 118.759H37.2506C33.0622 118.759 29.6438 122.183 29.6438 126.379C29.6438 130.575 33.0622 134 37.2506 134H66.489C70.6775 134 74.0959 130.575 74.0959 126.379C74.0959 122.183 70.664 118.759 66.489 118.759Z"></path>
				<path d="M48.8432 104.737H55.6123C59.8008 104.737 63.2192 101.312 63.2192 97.1165C63.2192 92.9205 59.8008 89.4961 55.6123 89.4961H48.8432C44.6547 89.4961 41.2363 92.9205 41.2363 97.1165C41.2363 101.312 44.6547 104.737 48.8432 104.737Z"></path>
			</g>
		</svg>
	</svg>
	<svg xmlns="http://www.w3.org/2000/svg" version="1.1"
		xmlns:xlink="http://www.w3.org/1999/xlink"
		xmlns:svgjs="http://svgjs.com/svgjs" fill="#ffffff" font-family="Ubuntu" font-size="31px" x="102.47500228881836" y="183.74000072479248" style="fill: rgb(255, 255, 255);">
		<path d="M11.90 25.46L11.90 25.46Q9.64 25.46 7.78 24.72Q5.92 23.98 4.59 22.55Q3.25 21.13 2.53 19.03Q1.80 16.94 1.80 14.24L1.80 14.24Q1.80 11.55 2.62 9.45Q3.44 7.36 4.84 5.93Q6.23 4.51 8.09 3.77Q9.95 3.02 12.06 3.02L12.06 3.02Q13.39 3.02 14.46 3.21Q15.53 3.39 16.32 3.64Q17.11 3.89 17.61 4.14Q18.10 4.39 18.29 4.51L18.29 4.51L17.42 6.99Q17.14 6.80 16.62 6.59Q16.09 6.37 15.42 6.15Q14.76 5.93 13.97 5.80Q13.18 5.66 12.37 5.66L12.37 5.66Q10.66 5.66 9.30 6.25Q7.94 6.83 6.97 7.95Q6.01 9.07 5.50 10.66Q4.99 12.26 4.99 14.24L4.99 14.24Q4.99 16.16 5.44 17.75Q5.89 19.33 6.79 20.46Q7.69 21.59 9.04 22.21Q10.38 22.83 12.18 22.83L12.18 22.83Q14.26 22.83 15.62 22.40Q16.99 21.96 17.67 21.62L17.67 21.62L18.45 24.10Q18.23 24.26 17.67 24.49Q17.11 24.72 16.27 24.94Q15.44 25.16 14.32 25.31Q13.21 25.46 11.90 25.46ZM35.46 16.94L35.46 16.94Q35.46 18.86 34.91 20.41Q34.35 21.96 33.34 23.08Q32.33 24.19 30.94 24.80Q29.54 25.40 27.90 25.40L27.90 25.40Q26.26 25.40 24.86 24.80Q23.47 24.19 22.46 23.08Q21.45 21.96 20.89 20.41Q20.34 18.86 20.34 16.94L20.34 16.94Q20.34 15.05 20.89 13.48Q21.45 11.92 22.46 10.80Q23.47 9.69 24.86 9.08Q26.26 8.48 27.90 8.48L27.90 8.48Q29.54 8.48 30.94 9.08Q32.33 9.69 33.34 10.80Q34.35 11.92 34.91 13.48Q35.46 15.05 35.46 16.94ZM32.46 16.94L32.46 16.94Q32.46 14.21 31.23 12.62Q30.01 11.02 27.90 11.02L27.90 11.02Q25.79 11.02 24.57 12.62Q23.34 14.21 23.34 16.94L23.34 16.94Q23.34 19.67 24.57 21.26Q25.79 22.86 27.90 22.86L27.90 22.86Q30.01 22.86 31.23 21.26Q32.46 19.67 32.46 16.94ZM42.41 0.94L42.41 9.59Q42.94 9.25 44.00 8.88Q45.07 8.51 46.47 8.51L46.47 8.51Q48.20 8.51 49.55 9.13Q50.90 9.75 51.83 10.86Q52.76 11.98 53.24 13.53Q53.72 15.08 53.72 16.94L53.72 16.94Q53.72 18.89 53.15 20.46Q52.58 22.02 51.52 23.11Q50.47 24.19 48.98 24.78Q47.49 25.37 45.63 25.37L45.63 25.37Q43.62 25.37 42.07 25.09Q40.52 24.81 39.52 24.54L39.52 24.54L39.52 1.44L42.41 0.94ZM42.41 12.29L42.41 22.49Q42.84 22.61 43.63 22.72Q44.42 22.83 45.60 22.83L45.60 22.83Q47.93 22.83 49.32 21.30Q50.72 19.76 50.72 16.94L50.72 16.94Q50.72 15.70 50.47 14.62Q50.22 13.53 49.66 12.74Q49.10 11.95 48.22 11.50Q47.34 11.05 46.10 11.05L46.10 11.05Q44.92 11.05 43.93 11.45Q42.94 11.86 42.41 12.29L42.41 12.29ZM63.24 22.92L63.24 22.92Q64.26 22.92 65.05 22.88Q65.84 22.83 66.37 22.71L66.37 22.71L66.37 17.90Q66.06 17.75 65.36 17.64Q64.67 17.53 63.67 17.53L63.67 17.53Q63.02 17.53 62.29 17.62Q61.57 17.71 60.96 18.01Q60.36 18.30 59.95 18.82Q59.55 19.33 59.55 20.16L59.55 20.16Q59.55 21.71 60.54 22.32Q61.54 22.92 63.24 22.92ZM62.99 8.48L62.99 8.48Q64.73 8.48 65.92 8.93Q67.12 9.38 67.84 10.20Q68.57 11.02 68.88 12.15Q69.19 13.28 69.19 14.65L69.19 14.65L69.19 24.72Q68.82 24.78 68.15 24.89Q67.49 25 66.65 25.09Q65.81 25.19 64.84 25.26Q63.86 25.34 62.90 25.34L62.90 25.34Q61.54 25.34 60.39 25.06Q59.24 24.78 58.40 24.18Q57.57 23.57 57.10 22.58Q56.64 21.59 56.64 20.20L56.64 20.20Q56.64 18.86 57.18 17.90Q57.72 16.94 58.65 16.35Q59.58 15.76 60.82 15.48Q62.06 15.20 63.43 15.20L63.43 15.20Q63.86 15.20 64.33 15.25Q64.79 15.30 65.21 15.37Q65.63 15.45 65.94 15.51Q66.25 15.58 66.37 15.61L66.37 15.61L66.37 14.80Q66.37 14.09 66.22 13.39Q66.06 12.69 65.66 12.15Q65.25 11.61 64.56 11.28Q63.86 10.96 62.74 10.96L62.74 10.96Q61.32 10.96 60.25 11.16Q59.18 11.36 58.65 11.58L58.65 11.58L58.31 9.19Q58.87 8.94 60.17 8.71Q61.47 8.48 62.99 8.48ZM79.20 22.89L78.80 25.31Q76.14 25.25 75.02 24.16Q73.90 23.08 73.90 20.78L73.90 20.78L73.90 1.44L76.79 0.94L76.79 20.32Q76.79 21.03 76.91 21.50Q77.04 21.96 77.31 22.24Q77.59 22.52 78.06 22.66Q78.52 22.80 79.20 22.89L79.20 22.89ZM85.13 3.89L85.13 8.88L91.23 8.88L91.23 11.30L85.13 11.30L85.13 18.74Q85.13 19.95 85.31 20.74Q85.50 21.53 85.87 21.98Q86.24 22.43 86.80 22.61Q87.36 22.80 88.10 22.80L88.10 22.80Q89.40 22.80 90.19 22.50Q90.98 22.21 91.30 22.09L91.30 22.09L91.85 24.47Q91.42 24.69 90.33 25.02Q89.25 25.34 87.85 25.34L87.85 25.34Q86.21 25.34 85.14 24.92Q84.07 24.50 83.42 23.67Q82.77 22.83 82.51 21.61Q82.24 20.38 82.24 18.77L82.24 18.77L82.24 4.39L85.13 3.89Z"></path>
	</svg>
	<svg xmlns="http://www.w3.org/2000/svg" version="1.1"
		xmlns:xlink="http://www.w3.org/1999/xlink"
		xmlns:svgjs="http://svgjs.com/svgjs" fill="#ffffff" font-family="Orbitron" font-size="16px" x="150" y="216.25999927520752" style="fill: rgb(255, 255, 255);">
		<path d=""></path>
	</svg>
</svg>