<svg xmlns="http://www.w3.org/2000/svg" version="1.1" xmlns:xlink="http://www.w3.org/1999/xlink" xmlns:svgjs="http://svgjs.com/svgjs" width="765" height="625" viewBox="0 0 328.24799194335935 300" style="background-color: rgb(255, 255, 255);" class="svg-animations "><svg xmlns="http://www.w3.org/2000/svg" version="1.1" xmlns:xlink="http://www.w3.org/1999/xlink" xmlns:svgjs="http://svgjs.com/svgjs" viewBox="0 0 135 140" width="100" height="100" style="fill: rgb(94, 129, 172);" x="27.35399932861327" y="100"><svg width="135" height="135" viewBox="0 0 135 135" xmlns="http://www.w3.org/2000/svg">
	<path d="M67.5 0C30.2732 0 0 30.2732 0 67.5C0 104.727 30.2732 135 67.5 135C104.727 135 135 104.727 135 67.5C135 30.2732 104.714 0 67.5 0ZM57.6777 92.0887C57.6513 92.0755 57.6249 92.0623 57.5984 92.0491C57.5323 91.9697 57.453 91.9036 57.3869 91.8243C57.1886 91.626 57.0035 91.4277 56.8052 91.2294C56.6069 91.0179 56.4086 90.7932 56.2236 90.5685C55.8402 90.0793 55.6022 89.3655 55.3775 88.7838C54.9016 87.5808 54.3199 86.4307 53.725 85.2673C53.4474 84.7253 53.183 84.1437 52.8525 83.6281C52.8393 83.5223 52.8393 83.4034 52.8261 83.2976C52.8525 83.2844 52.879 83.2711 52.9054 83.2579C53.725 82.7556 54.0159 81.8566 53.9498 80.9577C54.0423 81.0635 54.1348 81.1692 54.2406 81.2618C54.4653 81.4733 54.7165 81.3807 54.928 81.1956C54.9412 81.2089 54.9545 81.2089 54.9677 81.2089C54.9941 81.5922 55.047 81.9756 55.0602 82.3326C55.0734 82.6895 55.1131 83.1522 55.4039 83.4034C55.8137 83.7603 56.3954 83.324 56.7127 83.0596C56.8581 82.9407 56.9771 82.7952 57.0961 82.6498C57.6777 83.0729 58.1801 83.4562 58.3916 83.6149C60.0573 84.9104 61.3396 86.3381 62.3179 88.255C63.0449 89.6695 63.2829 90.3702 63.2697 91.9169C63.2565 93.2388 63.4019 95.0764 63.111 96.3058C62.9128 96.2397 62.7409 96.134 62.5823 96.015C62.4501 95.9092 62.3311 95.7902 62.2253 95.6581C62.2253 95.6448 62.2121 95.6448 62.2121 95.6316C62.0799 95.473 61.9609 95.3143 61.8419 95.1557C61.7759 95.0632 61.7098 94.9706 61.6304 94.8781C61.604 94.8384 61.5776 94.812 61.5379 94.7723C61.4321 94.6534 61.3396 94.5344 61.2206 94.4418C60.4142 93.7544 59.5417 93.1463 58.6296 92.6175C58.3255 92.4192 57.995 92.2606 57.6777 92.0887ZM50.116 87.5279C50.0499 87.3296 49.9574 87.1313 49.8384 86.9462C49.8384 86.933 49.8516 86.9198 49.8516 86.9066C49.8516 86.8801 49.8649 86.8537 49.8649 86.8273C49.8781 86.8273 49.8913 86.814 49.8913 86.814C50.5391 86.933 51.2001 86.933 51.8346 86.7215C52.4031 86.5364 52.6807 86.0605 52.8129 85.5317C53.2095 86.391 53.4342 87.3296 53.7515 88.2153C53.7647 88.2418 53.7647 88.255 53.7779 88.2814C53.9762 89.0746 54.2142 89.8546 54.5182 90.6213C54.3728 90.5552 54.2274 90.4759 54.082 90.4098C53.8969 90.3173 53.6854 90.2115 53.4739 90.1058C53.302 90.0264 53.1301 89.9339 52.9583 89.8414C52.8922 89.8017 52.8261 89.7753 52.7468 89.7356C52.5088 89.6166 52.2709 89.4844 52.0197 89.3522C51.9932 89.339 51.9668 89.3258 51.9404 89.2994C51.8875 89.2729 51.8478 89.2465 51.7949 89.22C51.5967 89.1011 51.3984 88.9953 51.1868 88.8631C51.0943 88.8102 50.9885 88.7441 50.896 88.678C50.7109 88.5591 50.5259 88.4401 50.3408 88.3211C50.2879 88.2814 50.2218 88.2418 50.1689 88.2021C50.1425 88.1889 50.116 88.1625 50.0896 88.1492C50.0632 88.136 50.0499 88.1228 50.0235 88.0964C50.0103 88.0831 49.9971 88.0699 49.9838 88.0567C50.116 87.9113 50.1821 87.7262 50.116 87.5279ZM61.7494 82.9274C61.0488 82.2532 60.3217 81.6055 59.5946 80.9577C59.3566 80.7594 59.1319 80.5479 58.8939 80.3496C58.6957 80.1777 58.5106 80.0059 58.3123 79.834C58.3255 79.8472 58.3255 79.8472 58.3387 79.8605C58.3123 79.834 58.2858 79.8076 58.2462 79.7811C58.2991 79.6225 58.3387 79.4639 58.3916 79.292C58.6957 79.8605 59.1187 80.2835 59.6871 80.1645C60.4935 80.0059 60.7712 79.0276 60.9034 78.3534C60.9694 77.9965 61.0488 77.6131 61.1016 77.2165C61.5643 77.1768 61.9874 76.9125 62.2518 76.5291C62.1857 76.9257 62.146 77.3355 62.0799 77.6924C61.9345 78.3798 61.5643 80.1909 62.7277 80.1116C63.23 80.0852 63.6663 79.4903 63.9571 79.1334C64.129 78.9351 64.2744 78.7103 64.4198 78.4856C64.5123 78.8425 64.6049 79.2127 64.6842 79.5696C64.6842 79.5828 64.6842 79.5961 64.6842 79.6093C64.9486 80.918 65.0411 82.2532 65.1998 83.5884C65.1998 83.6149 65.213 83.6413 65.213 83.6677V83.6545C65.213 83.7074 65.2262 83.7603 65.2394 83.7999C65.2526 83.9057 65.2791 84.0115 65.2923 84.1304C65.332 84.2891 65.3716 84.4345 65.4113 84.5931C65.4113 84.6063 65.4245 84.6196 65.4245 84.646C65.4642 84.7914 65.5038 84.9501 65.5303 85.0955C65.5699 85.2541 65.5964 85.4128 65.6096 85.5846C65.6492 85.9812 65.5831 86.4703 65.5435 86.8405C65.5303 86.8273 65.5303 86.814 65.517 86.8008C65.0544 86.2456 64.5123 85.7432 64.0232 85.2145C63.2829 84.4477 62.5294 83.681 61.7494 82.9274ZM65.8211 78.4327C66.178 78.2344 66.4689 77.9304 66.72 77.5999C66.7333 78.1155 66.8522 78.6971 67.2488 78.9747C67.1166 79.8869 66.8654 80.8255 66.5614 82.3061C66.5482 82.3458 66.5482 82.3987 66.535 82.4383C66.2045 81.8566 66.2573 81.0767 66.2177 80.4157C66.178 79.7283 66.0458 79.0805 65.8211 78.4327ZM69.483 79.2656C69.9457 79.1334 70.2101 78.8558 70.567 78.5649C70.6463 78.4988 70.7388 78.4327 70.8182 78.3666C70.8843 78.988 71.2808 79.4639 71.8229 79.8076C72.193 80.0455 72.6557 79.9794 73.0523 79.8076C72.5764 80.3232 72.0872 80.8255 71.7303 81.4336C70.99 82.6895 70.5273 84.0908 70.144 85.5053C69.8267 86.6818 69.7606 88.255 69.1657 89.3258C69.245 89.1804 68.7559 87.8981 68.703 87.7262C68.5179 86.9859 68.703 86.1266 68.584 85.3731C68.4783 84.7782 68.4518 84.1833 68.4386 83.5884C68.4386 83.2579 68.4386 82.9274 68.4386 82.5969C68.4386 82.4251 68.4518 82.2532 68.4518 82.0814C68.465 81.6848 68.4915 81.2882 68.5047 80.8784C68.5179 80.4421 68.5576 80.0191 68.5972 79.6093C68.6237 79.2788 68.6633 78.9483 68.703 78.6178C68.8881 78.4327 69.0599 78.2344 69.1921 78.0361C69.0996 78.2609 69.0203 78.4988 68.9542 78.75C68.8881 79.0541 69.1657 79.3581 69.483 79.2656ZM76.5423 81.0238C76.6216 81.037 76.7142 81.0502 76.8067 81.0502C76.2779 81.4997 75.7227 81.9095 75.141 82.2797C74.3875 82.7556 73.5414 83.0332 72.7879 83.5091C72.854 83.2844 72.9333 83.0729 72.9994 82.8481C73.0787 82.6102 73.1448 82.3722 73.2374 82.1475C73.396 81.7112 73.5679 81.2882 73.7529 80.8784C73.8058 80.7594 73.8719 80.6404 73.9512 80.5347C74.2817 80.6933 74.7576 80.5743 75.1939 80.3232C75.5376 80.1116 75.8549 79.8605 76.1457 79.5828C75.8681 80.1777 75.7359 80.8652 76.5423 81.0238ZM79.8208 82.5441C80.3496 82.782 80.9841 82.8878 81.6055 82.9539C81.6055 82.9671 81.6055 82.9803 81.6055 83.0068C81.4204 83.1257 81.2353 83.2579 81.0767 83.4166C80.8916 83.6016 80.6669 84.0115 80.918 84.2362C81.1956 84.5006 81.5658 84.5799 81.936 84.646C81.9888 84.9104 82.0153 85.1616 82.0285 85.426C82.0682 86.2456 81.5394 87.2635 81.3146 88.0567C81.0767 88.9292 80.8652 89.762 80.2967 90.4891C79.7415 91.2162 78.9351 91.6789 78.1948 92.1813C76.4233 93.3578 74.7709 94.574 73.2638 96.0943C72.616 96.7421 71.9418 97.3502 71.3866 98.0905C71.2808 98.2227 71.1883 98.3681 71.0958 98.5135V98.5267C71.109 97.879 71.1487 97.2312 71.2147 96.5834C71.2412 96.319 71.2808 96.0679 71.3205 95.8035C71.2412 94.7591 71.2147 93.7015 71.2941 92.644C71.3866 91.3484 71.5585 90.0132 71.8625 88.7309C71.9154 87.9906 71.9947 87.2503 72.1137 86.51C72.1534 86.3778 72.2062 86.2456 72.2591 86.1266C72.5367 85.3599 72.9862 84.8443 73.6472 84.3816C74.8634 83.5091 76.3176 83.0464 77.547 82.1739C78.1683 81.7377 78.7103 81.1824 79.2127 80.5875C79.3581 80.5479 79.4903 80.5082 79.6225 80.4686C79.2656 80.8652 78.9615 81.3411 78.988 81.817C78.988 82.2797 79.4771 82.3987 79.8208 82.5441ZM78.7368 130.016C77.9436 129.672 77.1504 129.289 76.3837 128.945C75.2864 128.456 74.1231 127.729 73.515 126.658C73.3828 126.42 73.2902 126.169 73.2242 125.905C72.9862 125.442 72.8276 124.913 72.7086 124.411C72.3516 122.878 72.3252 121.278 72.312 119.718C72.2855 116.757 71.9286 113.809 71.6907 110.861C71.4791 108.23 71.2941 105.546 71.3469 102.889C71.9551 101.594 72.8672 100.47 73.8323 99.4125C75.4979 97.5617 76.9653 96.4116 78.4327 95.4201C78.7897 95.0499 79.2259 94.7591 79.6489 94.4683C80.0323 94.2039 80.4157 93.9659 80.8123 93.7147C81.037 93.6751 81.2618 93.6486 81.4997 93.6486C81.7377 93.6354 81.9756 93.6487 82.2268 93.6883C83.1125 93.8205 83.985 93.9527 84.8707 94.0585C85.3599 94.1113 85.8622 94.1378 86.3646 94.151C86.272 94.4815 86.1927 94.8252 86.1927 95.1425C86.1927 95.3408 86.3778 95.5259 86.5761 95.5259C87.5279 95.4862 88.4136 95.116 89.2729 94.6798C89.1011 95.0896 88.9689 95.5126 88.916 95.9224C88.8895 96.1868 88.9821 96.4116 89.2729 96.438C90.2776 96.5438 91.0179 95.6977 91.6921 95.0764C91.7979 95.8696 92.0358 96.9668 92.7894 97.3105C93.8866 97.8261 94.4947 96.319 94.6666 95.5259C94.9177 96.0282 95.2879 96.4645 95.7374 96.7421C96.1075 96.9668 96.6099 96.4512 96.7421 96.1736C96.7949 96.0811 96.8082 95.9753 96.8478 95.8696C96.8478 95.8828 96.861 95.8828 96.861 95.896C96.9007 95.8035 96.9139 95.6977 96.9404 95.5919C96.9536 95.5258 96.98 95.473 96.9932 95.4069C97.0329 95.1821 97.0726 94.9574 97.0726 94.7327C97.4956 95.2879 98.1962 95.6448 98.844 95.2482C99.5314 94.8252 99.6108 94.0188 99.5314 93.2785C100.007 92.8819 100.351 92.3663 100.536 91.7847C100.589 91.7847 100.629 91.7847 100.682 91.7847C101.038 92.0358 101.422 92.2209 101.832 92.2474C102.519 92.3135 102.863 91.8904 103.048 91.3749C103.167 91.322 103.286 91.2691 103.392 91.203C103.749 91.6128 104.198 91.8904 104.766 91.7582C105.322 91.626 105.745 91.1369 105.956 90.6345C106.022 90.4891 106.062 90.3437 106.102 90.1851C106.3 90.4363 106.538 90.6742 106.802 90.8593C107.741 91.5203 109.036 91.745 109.975 90.9518C110.808 90.238 110.319 88.9292 110.094 88.0699C110.015 87.7791 109.962 87.4882 109.896 87.1842C111.006 87.2635 112.236 87.1842 113.201 86.6422C114.853 85.7036 113.359 83.6677 112.288 82.9274C112.117 82.8085 111.641 82.5705 111.125 82.3987C111.971 81.8038 112.698 80.9841 113.227 80.0852C113.333 79.9001 113.425 79.6093 113.174 79.5035C112.804 79.3317 112.355 79.2259 111.879 79.1863C112.817 78.5649 113.65 77.7056 114.179 76.7274C114.285 76.5291 114.232 76.3176 114.06 76.2118C113.743 76.0267 113.412 75.8681 113.082 75.7491C113.465 75.6169 113.822 75.4186 114.152 75.1542C114.734 74.6651 114.747 73.9248 114.152 73.4753C113.941 73.3167 113.703 73.1845 113.439 73.0919C114.364 72.5896 115.144 71.77 115.527 70.7917C115.593 70.6199 115.62 70.3687 115.408 70.2894C114.523 69.9324 113.531 69.787 112.593 69.9192C113.042 69.4301 113.306 68.8484 113.108 68.0817C112.764 66.7861 111.218 66.9183 110.041 67.2356C110.187 66.9051 110.319 66.5614 110.451 66.2177C110.649 65.636 111.019 64.6842 110.623 64.1157C110.583 64.0629 110.543 64.01 110.491 63.9703C110.464 63.9571 110.451 63.9439
	 110.424 63.9307C110.398 63.9174 110.372 63.891 110.332 63.8778C110.306 63.8646 110.279 63.8646 110.253 63.8646C110.226 63.8646 110.187 63.8514 110.16 63.8514C110.134 63.8514 110.107 63.8514 110.081 63.8514C110.054 63.8514 110.015 63.8514 109.988 63.8646C109.975 63.8646 109.962 63.8646 109.962 63.8646C109.949 63.8646 109.922 63.8778 109.909 63.8778C109.896 63.8778 109.896 63.891 109.882 63.891C109.79 63.9175 109.711 63.9439 109.618 63.9836C109.605 63.9968 109.578 63.9968 109.565 64.01C109.473 64.0496 109.393 64.1025 109.301 64.1554C109.261 64.1422 109.221 64.129 109.182 64.129C109.327 64.0496 109.393 63.891 109.367 63.6663C109.235 62.6616 108.283 61.7494 107.424 61.1149L107.437 61.1016C107.741 60.8373 108.032 60.5332 108.296 60.2291C108.865 59.5814 109.446 58.9336 108.706 58.1669C108.23 57.6645 107.159 57.3472 106.485 57.2415C106.445 57.2283 106.392 57.2283 106.353 57.215C106.564 56.9639 106.776 56.6995 106.961 56.4351C107.212 56.0517 107.397 55.6419 107.503 55.2056C107.701 54.8884 107.873 54.5711 108.032 54.2406C108.442 53.3813 108.706 52.2312 107.781 51.5834C107.186 51.1736 106.3 51.1075 105.599 51.1207C105.242 51.134 104.872 51.1604 104.515 51.2397C104.515 51.1868 104.515 51.1207 104.515 51.0679C104.528 50.0896 104.687 49.0849 104.423 48.1331C104.343 47.8422 104.013 47.406 103.656 47.4853C102.969 47.6439 101.832 48.3843 101.369 49.2303C101.329 48.6751 101.263 48.1331 101.171 47.5911C101.105 47.2209 100.734 46.9169 100.377 46.9169C99.9809 46.9169 99.5843 47.0226 99.2009 47.1416C99.4389 46.7053 99.6504 46.2559 99.8091 45.78C99.9941 45.2644 99.4125 44.7753 98.9498 44.7488C98.5928 44.7356 98.0112 44.762 97.4824 44.9075C97.7996 43.9028 97.7071 42.5279 97.4295 41.9198C97.2973 41.6422 96.9668 41.3514 96.6363 41.4703C96.2397 41.6025 95.8828 41.7876 95.5391 42.0123C95.4201 41.6951 95.2747 41.391 95.1425 41.1398C94.8384 40.5317 94.389 39.0776 93.4768 39.1569C93.0273 39.1965 92.71 39.5667 92.4324 39.884C92.0887 40.2806 91.7582 40.7036 91.4806 41.1531C91.2294 41.5761 91.0179 42.0123 90.8461 42.4618C90.661 41.9595 90.4362 41.4968 90.2644 41.1266C89.8017 40.1616 89.458 39.1172 88.7706 38.2712C88.4665 37.901 87.9245 37.3854 87.3957 37.5705C87.1181 37.663 86.9198 37.9671 86.7612 38.2447C86.5893 37.9142 86.3646 37.6234 86.087 37.3854C85.1219 36.579 83.7735 37.1078 82.8481 37.7027C82.5044 37.9142 82.1871 38.1786 81.8831 38.4298C81.817 38.4694 81.7773 38.5223 81.7244 38.5752C81.5526 38.7206 81.3807 38.8793 81.2089 39.0247C81.275 38.6942 81.3411 38.3637 81.3543 38.02C81.3807 37.2136 80.8387 36.5922 80.072 36.4072C79.0276 36.1692 77.9304 36.7509 77.124 37.5573C76.4365 36.4733 74.6519 36.5394 73.2109 36.8831C73.5546 35.6272 73.0523 34.2656 71.4395 34.3317C70.8578 34.3581 70.3555 34.6093 69.9589 34.9927C69.8663 34.53 69.7474 34.0673 69.5887 33.6575C69.1128 32.3751 67.8305 31.6481 66.5746 32.4677C65.4774 33.1948 65.2394 34.8472 65.0808 36.0238C65.0279 36.3675 65.0015 36.698 64.975 37.0417C64.9354 37.0021 64.9089 36.9756 64.8693 36.936C64.6445 36.6319 64.3669 36.3675 64.0232 36.2485C62.926 35.8652 62.2914 36.4865 61.8552 37.3061C61.3925 36.3411 60.7844 35.3892 59.74 35.4553C59.8458 34.0805 59.4624 32.6924 57.9025 32.9436C56.9374 33.1022 56.3161 34.1334 55.9195 34.9266C55.8931 34.9927 55.8666 35.0455 55.827 35.1116C55.4568 34.0276 54.7694 33.1287 53.6721 33.3931C52.4427 33.6839 52.2973 34.9266 52.2973 36.1296C51.6231 35.5479 50.777 35.3099 49.9838 36.0502C49.2964 36.6848 49.2568 37.6366 49.4683 38.5884C48.9527 38.3901 48.4107 38.4033 47.8687 38.8396C47.2474 39.3419 47.168 40.1484 47.3531 40.968C46.2955 40.5846 45.119 40.611 44.2068 41.3381C43.8102 41.6554 43.5723 42.0652 43.4401 42.5015C43.1228 43.0964 42.8716 43.7177 42.594 44.3258C42.4354 44.6695 42.2239 45.1058 42.0388 45.5817C41.8801 45.1586 41.6818 44.7356 41.4439 44.339C41.1927 43.9028 40.8754 43.5194 40.5449 43.1492C40.2806 42.8452 39.9897 42.4882 39.5667 42.4618C38.7074 42.3957 38.2844 43.7573 37.9935 44.339C37.8746 44.577 37.7424 44.8678 37.6234 45.1719C37.3061 44.9603 36.9624 44.7885 36.5922 44.6563C36.275 44.5505 35.9709 44.8149 35.8387 45.0793C35.5743 45.661 35.495 46.9433 35.7858 47.8951C35.2835 47.7629 34.7415 47.7365 34.3978 47.7497C33.9615 47.7629 33.4063 48.2388 33.5781 48.7147C33.7368 49.151 33.9351 49.574 34.1598 49.9971C33.7897 49.8913 33.4327 49.7855 33.0494 49.7855C32.7056 49.7855 32.3487 50.0764 32.2958 50.4201C32.2033 50.9357 32.1504 51.4512 32.1108 51.9668C31.6877 51.1736 30.6037 50.473 29.9559 50.3276C29.6122 50.2482 29.3082 50.6713 29.2288 50.9357C28.9777 51.8346 29.1231 52.7864 29.1363 53.7118C29.1363 53.7647 29.1363 53.8176 29.1363 53.8704C28.8058 53.7911 28.4489 53.7647 28.1184 53.7647C27.4574 53.7515 26.6246 53.8176 26.0693 54.2009C25.1968 54.809 25.448 55.8931 25.8314 56.6995C25.9768 57.0035 26.1486 57.3076 26.3337 57.6116C26.4263 58.0215 26.5981 58.4048 26.8361 58.7618C27.0079 59.0261 27.2062 59.2641 27.4177 59.5021C27.3649 59.5153 27.3252 59.5153 27.2855 59.5285C26.6642 59.6343 25.6463 59.9119 25.1968 60.401C24.5094 61.1281 25.0514 61.7362 25.5934 62.3443C25.8446 62.6219 26.109 62.8995 26.3998 63.1639C26.3998 63.1639 26.413 63.1639 26.413 63.1771C25.5934 63.772 24.6945 64.6313 24.5755 65.5831C24.5358 65.9401 24.7341 66.1252 25.0778 66.0855C25.7653 66.0194 26.5452 66.0458 27.3384 66.0458C27.2327 66.2573 27.1401 66.4821 27.0608 66.6804C26.9418 66.9977 26.7964 67.4075 26.77 67.7908C26.3469 67.2885 25.8182 67.0241 25.2629 67.4207C24.668 67.8305 24.6813 68.4386 24.7606 69.0732C24.5226 68.8749 24.2847 68.6633 24.0599 68.4386C23.8088 68.2006 23.4254 68.6237 23.4254 68.8749C23.4254 69.5094 23.3196 70.2365 23.6105 70.8182C23.6633 70.9239 23.7162 71.0958 23.8088 71.2412C22.738 71.4395 21.6936 71.8493 20.9004 72.5499C20.7814 72.6557 20.6625 72.9201 20.8079 73.0391C21.3102 73.4885 21.8919 73.9645 22.5264 74.2685C22.2885 74.4536 22.0505 74.6519 21.8258 74.8502C20.9269 75.6434 19.975 76.582 19.671 77.785C19.6445 77.9172 19.6842 78.0758 19.8164 78.1287C20.5964 78.4195 21.4953 78.3799 22.3281 78.2873C22.0505 78.6575 21.839 79.0541 21.7597 79.5432C21.7465 79.6622 21.7597 79.8472 21.9051 79.8869C22.1959 79.9662 22.4736 79.953 22.7512 79.9133C22.7644 79.9133 22.7908 79.9133 22.8041 79.9001C22.3546 80.7065 22.0637 81.579 22.0109 82.5441C21.9977 82.6895 22.1298 82.7556 22.2488 82.782C22.9891 82.9274 23.8484 82.3854 24.5623 82.0549C24.5226 82.2664 24.4962 82.478 24.4697 82.6895C24.3508 83.7206 24.3772 84.9368 24.6416 85.9415C24.9192 87.0123 25.9636 86.6951 26.6907 86.2456C26.7832 86.1927 26.8757 86.1266 26.9683 86.0473C26.9551 86.272 26.9418 86.4968 26.9683 86.7215C26.9815 86.8405 27.074 86.9595 27.2062 86.9595C27.7879 86.933 28.1448 86.6025 28.5943 86.3249C28.2902 86.9991 28.0126 87.6866 28.0126 88.4533C28.0126 88.6119 28.1713 88.6912 28.3167 88.6516C29.0041 88.4665 29.6915 88.0964 30.3525 87.8055C30.4054 87.7791 30.4451 87.7526 30.4979 87.7262C30.5376 88.0567 30.8284 88.2947 31.1986 88.4797C31.0532 88.5723 30.9078 88.6648 30.7491 88.7573C30.141 89.1275 29.4536 89.5637 29.176 90.2512C29.1363 90.3569 29.0967 90.5552 29.2024 90.6345C30.3525 91.4409 31.8464 91.626 33.2212 91.5731C33.4856 91.5599 33.7632 91.5335 34.0408 91.4938C34.0012 91.7979 33.988 92.1152 34.0144 92.4324C34.0805 93.371 34.5961 95.0499 35.495 95.4994C35.9841 95.7506 36.5658 95.235 36.8963 94.931C37.3986 94.455 37.8746 93.9263 38.2579 93.3446C38.2712 93.4239 38.2844 93.49 38.3108 93.5561C38.2976 93.7676 38.4166 93.9527 38.6281 93.9924C38.8264 94.1246 39.104 94.1642 39.5006 94.0585C40.1351 93.8866 40.6771 93.5165 41.1531 93.067C41.1927 94.3361 41.5364 95.3804 42.6072 95.2086C44.1275 94.9706 45.1983 93.0934 45.7271 91.8243C45.8064 91.626 45.8989 91.3749 45.9783 91.0972C46.0708 91.1369 46.1501 91.1766 46.2294 91.203C46.9301 91.4806 47.7894 91.6525 48.3975 91.084C49.1642 90.3702 48.6354 89.4712 48.1727 88.7573C48.1595 88.7309 48.1463 88.7177 48.1331 88.6912C48.1727 88.7177 48.2124 88.7441 48.2521 88.7706C48.2653 88.7838 48.2917 88.797 48.3049 88.8102C49.0981 89.339 50.0235 89.9339 50.8696 90.4891C51.0811 90.6213 51.2926 90.7667 51.4909 90.8989C51.5306 90.9254 51.5702 90.9518 51.6099 90.9783C51.8478 91.1369 52.0858 91.3088 52.2973 91.4542C53.2095 91.9301 54.1481 92.3796 55.1131 92.7497C55.827 93.0273 56.5673 93.2653 57.2679 93.5958C57.8496 93.8734 58.3916 94.2303 58.8807 94.6534C59.6475 95.0896 60.3746 95.6184 61.0355 96.2265C61.7098 96.7421 62.3046 97.3237 62.7806 97.9979C62.8731 98.1301 62.9788 98.2623 63.0714 98.3945C63.0978 98.421 63.111 98.4606 63.1375 98.4871C63.2168 98.6061 63.2961 98.725 63.3754 98.844C63.4019 98.8969 63.4283 98.9498 63.468 99.0026C63.5209 99.1084 63.5737 99.2142 63.6134 99.3067C63.6398 99.3728 63.6531 99.4389 63.6795 99.505C63.7192 99.6504 63.7588 99.7826 63.7588 99.928C63.7588 100.034 63.7588 100.14 63.7456 100.232C63.8249 101.739 63.9174 103.246 63.9703 104.753C63.9835 104.965 63.9836 105.176 63.9836 105.388C64.2876 106.961 64.1025 108.706 63.9571 110.213C63.6266 113.624 64.1157 117.074 63.4151 120.445C63.0978 121.979 62.8995 123.525 62.7541 125.098C62.6219 126.513 62.265 127.795 61.2074 128.787C60.4539 129.501 59.5682 129.95 58.6296 130.267C27.6954 125.971 3.96592 99.4521 3.96592 67.5C3.96592 32.4677 32.4677 3.96592 67.5 3.96592C102.532 3.96592 131.034 32.4677 131.034 67.5C131.034 98.6986 108.415 124.689 78.7368 130.016ZM84.5402 89.1143C84.3552 89.2465 83.9321 89.7753 84.1701 90.0397C83.7338 90.2512 83.2976 90.4891 82.8481 90.6874C82.8746 90.6213 82.901 90.5552 82.9274 90.4891C82.9539 90.4362 82.9671 90.3966 82.9935 90.3437C83.1125 90.0529 83.2447 89.762 83.3505 89.458C83.562 88.8895 83.6677 88.255 83.7603 87.6469C84.3023 88.0435 84.9765 88.2814 85.5846 88.5062C85.0955 88.7706 84.6724 89.0217 84.5402 89.1143ZM86.9198 92.8687C86.9066 92.8819 86.9066 92.8951 86.9066 92.9083C85.5317 92.8422 84.1701 92.6968 82.7952 92.644C83.1786 92.4589 83.562 92.3002 83.9454 92.1284C84.3552 91.9565 84.7782 91.7979 85.188 91.6393C85.4524 92.3267 86.1531 92.6968 86.9198 92.8687ZM82.9407 85.3466C82.9142 85.4524 82.8878 85.5582 82.8613 85.6639C82.8349 85.7036 82.7556 85.6904 
	 82.7556 85.6243C82.7556 85.3202 82.7159 85.0294 82.663 84.7385C82.8085 84.765 82.9407 84.7782 83.0861 84.8046C83.0332 84.9897 82.9803 85.1748 82.9407 85.3466ZM107.516 64.6313C107.595 64.4595 107.675 64.2876 107.701 64.1157C107.952 64.1157 108.177 64.129 108.415 64.1422C108.362 64.1554 108.309 64.1818 108.243 64.1951C107.992 64.314 107.754 64.4727 107.516 64.6313Z"></path>
	</svg></svg><svg xmlns="http://www.w3.org/2000/svg" version="1.1" xmlns:xlink="http://www.w3.org/1999/xlink" xmlns:svgjs="http://svgjs.com/svgjs" style="fill: rgb(94, 129, 172);" x="137.35399932861327" y="130.5950002670288"><path d="M12.29 26.48L12.29 26.48Q9.95 26.48 8.03 25.71Q6.11 24.94 4.74 23.47Q3.36 22 2.61 19.84Q1.86 17.68 1.86 14.90L1.86 14.90Q1.86 12.11 2.70 9.95Q3.55 7.79 4.99 6.32Q6.43 4.85 8.35 4.08Q10.27 3.31 12.45 3.31L12.45 3.31Q13.82 3.31 14.93 3.50Q16.03 3.70 16.85 3.95Q17.66 4.21 18.18 4.46Q18.69 4.72 18.88 4.85L18.88 4.85L17.98 7.41Q17.70 7.22 17.15 6.99Q16.61 6.77 15.92 6.54Q15.23 6.32 14.42 6.18Q13.60 6.03 12.77 6.03L12.77 6.03Q11.01 6.03 9.60 6.64Q8.19 7.25 7.20 8.40Q6.21 9.55 5.68 11.20Q5.15 12.85 5.15 14.90L5.15 14.90Q5.15 16.88 5.62 18.51Q6.08 20.14 7.01 21.31Q7.94 22.48 9.33 23.12Q10.72 23.76 12.58 23.76L12.58 23.76Q14.72 23.76 16.13 23.31Q17.54 22.86 18.24 22.51L18.24 22.51L19.04 25.07Q18.82 25.23 18.24 25.47Q17.66 25.71 16.80 25.94Q15.94 26.16 14.78 26.32Q13.63 26.48 12.29 26.48ZM36.61 17.68L36.61 17.68Q36.61 19.66 36.03 21.26Q35.46 22.86 34.42 24.02Q33.38 25.17 31.94 25.79Q30.50 26.42 28.80 26.42L28.80 26.42Q27.10 26.42 25.66 25.79Q24.22 25.17 23.18 24.02Q22.14 22.86 21.57 21.26Q20.99 19.66 20.99 17.68L20.99 17.68Q20.99 15.73 21.57 14.11Q22.14 12.50 23.18 11.34Q24.22 10.19 25.66 9.57Q27.10 8.94 28.80 8.94L28.80 8.94Q30.50 8.94 31.94 9.57Q33.38 10.19 34.42 11.34Q35.46 12.50 36.03 14.11Q36.61 15.73 36.61 17.68ZM33.50 17.68L33.50 17.68Q33.50 14.86 32.24 13.22Q30.98 11.57 28.80 11.57L28.80 11.57Q26.62 11.57 25.36 13.22Q24.10 14.86 24.10 17.68L24.10 17.68Q24.10 20.50 25.36 22.14Q26.62 23.79 28.80 23.79L28.80 23.79Q30.98 23.79 32.24 22.14Q33.50 20.50 33.50 17.68ZM51.55 23.41L51.55 12.88Q51.01 12.43 49.98 12.02Q48.96 11.60 47.74 11.60L47.74 11.60Q46.46 11.60 45.55 12.06Q44.64 12.53 44.06 13.34Q43.49 14.16 43.23 15.28Q42.98 16.40 42.98 17.68L42.98 17.68Q42.98 20.59 44.42 22.18Q45.86 23.76 48.26 23.76L48.26 23.76Q49.47 23.76 50.29 23.65Q51.10 23.54 51.55 23.41L51.55 23.41ZM51.55 10.10L51.55 1.68L54.53 1.17L54.53 25.52Q53.50 25.81 51.90 26.10Q50.30 26.38 48.22 26.38L48.22 26.38Q46.30 26.38 44.77 25.78Q43.23 25.17 42.14 24.05Q41.06 22.93 40.46 21.31Q39.87 19.70 39.87 17.68L39.87 17.68Q39.87 15.76 40.37 14.16Q40.86 12.56 41.82 11.41Q42.78 10.26 44.18 9.62Q45.57 8.98 47.36 8.98L47.36 8.98Q48.80 8.98 49.90 9.36Q51.01 9.74 51.55 10.10L51.55 10.10ZM58.72 17.71L58.72 17.71Q58.72 15.50 59.36 13.86Q60.00 12.21 61.06 11.12Q62.11 10.03 63.49 9.49Q64.86 8.94 66.30 8.94L66.30 8.94Q69.66 8.94 71.46 11.04Q73.25 13.14 73.25 17.42L73.25 17.42Q73.25 17.62 73.25 17.92Q73.25 18.22 73.22 18.48L73.22 18.48L61.82 18.48Q62.02 21.07 63.33 22.42Q64.64 23.76 67.42 23.76L67.42 23.76Q68.99 23.76 70.06 23.49Q71.14 23.22 71.68 22.96L71.68 22.96L72.10 25.46Q71.55 25.74 70.19 26.06Q68.83 26.38 67.10 26.38L67.10 26.38Q64.93 26.38 63.34 25.73Q61.76 25.07 60.74 23.92Q59.71 22.77 59.22 21.18Q58.72 19.60 58.72 17.71ZM61.89 16.08L70.14 16.08Q70.18 14.06 69.14 12.77Q68.10 11.47 66.27 11.47L66.27 11.47Q65.25 11.47 64.46 11.87Q63.68 12.27 63.14 12.91Q62.59 13.55 62.29 14.38Q61.98 15.22 61.89 16.08L61.89 16.08ZM83.68 9.01L83.68 9.01Q84.06 9.01 84.56 9.06Q85.06 9.10 85.54 9.18Q86.02 9.26 86.42 9.34Q86.82 9.42 87.01 9.49L87.01 9.49L86.50 12.08Q86.14 11.95 85.33 11.78Q84.51 11.60 83.23 11.60L83.23 11.60Q82.40 11.60 81.58 11.78Q80.77 11.95 80.51 12.02L80.51 12.02L80.51 26L77.54 26L77.54 10.06Q78.59 9.68 80.16 9.34Q81.73 9.01 83.68 9.01ZM100.64 23.41L100.64 12.88Q100.10 12.43 99.07 12.02Q98.05 11.60 96.83 11.60L96.83 11.60Q95.55 11.60 94.64 12.06Q93.73 12.53 93.15 13.34Q92.58 14.16 92.32 15.28Q92.06 16.40 92.06 17.68L92.06 17.68Q92.06 20.59 93.50 22.18Q94.94 23.76 97.34 23.76L97.34 23.76Q98.56 23.76 99.38 23.65Q100.19 23.54 100.64 23.41L100.64 23.41ZM100.64 10.10L100.64 1.68L103.62 1.17L103.62 25.52Q102.59 25.81 100.99 26.10Q99.39 26.38 97.31 26.38L97.31 26.38Q95.39 26.38 93.86 25.78Q92.32 25.17 91.23 24.05Q90.14 22.93 89.55 21.31Q88.96 19.70 88.96 17.68L88.96 17.68Q88.96 15.76 89.46 14.16Q89.95 12.56 90.91 11.41Q91.87 10.26 93.26 9.62Q94.66 8.98 96.45 8.98L96.45 8.98Q97.89 8.98 98.99 9.36Q100.10 9.74 100.64 10.10L100.64 10.10ZM123.42 17.68L123.42 17.68Q123.42 19.66 122.85 21.26Q122.27 22.86 121.23 24.02Q120.19 25.17 118.75 25.79Q117.31 26.42 115.62 26.42L115.62 26.42Q113.92 26.42 112.48 25.79Q111.04 25.17 110 24.02Q108.96 22.86 108.38 21.26Q107.81 19.66 107.81 17.68L107.81 17.68Q107.81 15.73 108.38 14.11Q108.96 12.50 110 11.34Q111.04 10.19 112.48 9.57Q113.92 8.94 115.62 8.94L115.62 8.94Q117.31 8.94 118.75 9.57Q120.19 10.19 121.23 11.34Q122.27 12.50 122.85 14.11Q123.42 15.73 123.42 17.68ZM120.32 17.68L120.32 17.68Q120.32 14.86 119.06 13.22Q117.79 11.57 115.62 11.57L115.62 11.57Q113.44 11.57 112.18 13.22Q110.91 14.86 110.91 17.68L110.91 17.68Q110.91 20.50 112.18 22.14Q113.44 23.79 115.62 23.79L115.62 23.79Q117.79 23.79 119.06 22.14Q120.32 20.50 120.32 17.68ZM124.90 31.98L124.90 31.98Q124.51 31.98 123.90 31.89Q123.30 31.79 122.88 31.63L122.88 31.63L123.26 29.20Q123.58 29.30 124 29.36Q124.42 29.42 124.77 29.42L124.77 29.42Q126.30 29.42 126.96 28.48Q127.62 27.54 127.62 25.71L127.62 25.71L127.62 9.36L130.59 9.36L130.59 25.68Q130.59 28.88 129.14 30.43Q127.68 31.98 124.90 31.98ZM129.09 6.35L129.09 6.35Q128.29 6.35 127.73 5.82Q127.17 5.30 127.17 4.40L127.17 4.40Q127.17 3.50 127.73 2.98Q128.29 2.45 129.09 2.45L129.09 2.45Q129.89 2.45 130.45 2.98Q131.01 3.50 131.01 4.40L131.01 4.40Q131.01 5.30 130.45 5.82Q129.89 6.35 129.09 6.35ZM150.40 17.68L150.40 17.68Q150.40 19.66 149.82 21.26Q149.25 22.86 148.21 24.02Q147.17 25.17 145.73 25.79Q144.29 26.42 142.59 26.42L142.59 26.42Q140.90 26.42 139.46 25.79Q138.02 25.17 136.98 24.02Q135.94 22.86 135.36 21.26Q134.78 19.66 134.78 17.68L134.78 17.68Q134.78 15.73 135.36 14.11Q135.94 12.50 136.98 11.34Q138.02 10.19 139.46 9.57Q140.90 8.94 142.59 8.94L142.59 8.94Q144.29 8.94 145.73 9.57Q147.17 10.19 148.21 11.34Q149.25 12.50 149.82 14.11Q150.40 15.73 150.40 17.68ZM147.30 17.68L147.30 17.68Q147.30 14.86 146.03 13.22Q144.77 11.57 142.59 11.57L142.59 11.57Q140.42 11.57 139.15 13.22Q137.89 14.86 137.89 17.68L137.89 17.68Q137.89 20.50 139.15 22.14Q140.42 23.79 142.59 23.79L142.59 23.79Q144.77 23.79 146.03 22.14Q147.30 20.50 147.30 17.68Z"></path></svg><text fill="#ffffff" font-family="Verdana" font-size="16px" x="214.12399597167968" y="169.4049997329712"><tspan dy="23.400000000000002" x="214.12399597167968"></tspan></text></svg>