<?xml version="1.0" standalone="no"?>
<!DOCTYPE svg PUBLIC "-//W3C//DTD SVG 20010904//EN"
 "http://www.w3.org/TR/2001/REC-SVG-20010904/DTD/svg10.dtd">
<svg version="1.0" xmlns="http://www.w3.org/2000/svg"
 width="690.000000pt" height="690.000000pt" viewBox="0 0 690.000000 690.000000"
 preserveAspectRatio="xMidYMid meet">
<metadata>
Created by potrace 1.11, written by Peter Selinger 2001-2013
</metadata>
<g transform="translate(0.000000,690.000000) scale(0.100000,-0.100000)"
fill="#000000" stroke="none">
<path d="M2118 5437 c-77 -19 -157 -118 -158 -195 0 -99 64 -195 148 -220 28
-9 171 -12 498 -12 430 0 462 2 501 19 48 22 79 54 109 112 56 109 -15 264
-136 297 -44 12 -912 11 -962 -1z"/>
<path d="M3826 5438 c-21 -4 -56 -22 -78 -39 -135 -108 -100 -317 65 -378 18
-7 191 -11 491 -11 518 0 505 -2 574 70 102 106 73 273 -58 341 l-45 24 -455
1 c-250 0 -472 -3 -494 -8z"/>
<path d="M2459 4599 c-158 -42 -218 -237 -111 -356 55 -62 99 -75 256 -75 153
-1 202 11 253 61 60 58 83 165 51 241 -19 45 -72 98 -118 118 -37 16 -283 24
-331 11z"/>
<path d="M3331 4583 c-145 -50 -197 -232 -99 -347 17 -21 50 -47 72 -59 41
-21 44 -21 961 -22 l920 -1 47 22 c141 63 177 240 71 349 -70 73 -6 68 -1023
69 -686 1 -923 -2 -949 -11z"/>
<path d="M1305 3750 c-112 -11 -195 -105 -195 -217 1 -100 72 -190 167 -211
21 -4 171 -8 333 -7 287 0 296 1 339 23 52 27 75 52 102 109 24 52 26 116 6
166 -9 20 -16 39 -17 42 -2 14 -55 55 -96 75 -45 22 -57 23 -318 24 -149 1
-293 -1 -321 -4z"/>
<path d="M2575 3749 c-173 -24 -249 -234 -132 -361 14 -15 45 -38 69 -50 42
-22 50 -23 353 -23 328 0 351 3 403 49 98 87 106 230 19 324 -20 23 -70 50
-107 59 -25 6 -562 8 -605 2z"/>
<path d="M3926 3743 c-1 -1 -35 -3 -76 -4 -84 -2 -120 -13 -168 -54 -128 -108
-80 -329 82 -373 17 -5 445 -8 951 -8 l920 1 40 25 c52 31 73 55 97 108 54
120 -21 268 -151 297 -27 6 -1689 14 -1695 8z"/>
<path d="M3329 2874 c-59 -18 -123 -81 -139 -139 -33 -116 27 -232 140 -272
47 -17 1824 -19 1884 -2 53 15 129 92 143 145 30 119 -37 241 -149 272 -23 6
-359 10 -935 10 -727 0 -907 -3 -944 -14z"/>
<path d="M2465 2870 c-187 -40 -232 -287 -72 -395 46 -32 85 -38 233 -37 111
0 137 3 170 20 131 68 167 221 78 338 -47 61 -99 77 -248 79 -72 0 -144 -2
-161 -5z"/>
<path d="M2140 2029 c-69 -11 -119 -49 -158 -120 -22 -40 -24 -131 -4 -180 18
-44 62 -89 111 -111 45 -20 59 -21 500 -22 507 -1 513 0 581 65 112 109 69
310 -76 360 -30 10 -141 13 -479 14 -242 0 -456 -2 -475 -6z"/>
<path d="M3826 2025 c-98 -25 -160 -107 -159 -210 1 -109 65 -187 173 -212 19
-5 235 -8 480 -7 501 2 494 1 562 76 97 109 65 272 -67 341 -39 20 -54 21
-493 22 -293 0 -469 -3 -496 -10z"/>
</g>
</svg>
