<?xml version="1.0" standalone="no"?>
<!DOCTYPE svg PUBLIC "-//W3C//DTD SVG 20010904//EN"
 "http://www.w3.org/TR/2001/REC-SVG-20010904/DTD/svg10.dtd">
<svg version="1.0" xmlns="http://www.w3.org/2000/svg"
 width="690.000000pt" height="690.000000pt" viewBox="0 0 690.000000 690.000000"
 preserveAspectRatio="xMidYMid meet">
<metadata>
Created by potrace 1.14, written by Peter Selinger 2001-2017
</metadata>
<g transform="translate(0.000000,690.000000) scale(0.100000,-0.100000)"
fill="#000000" stroke="none">
<path d="M3170 5774 c-142 -17 -371 -73 -509 -125 -695 -261 -1227 -858 -1402
-1574 -49 -202 -63 -320 -63 -540 0 -369 68 -666 229 -993 228 -465 601 -832
1072 -1054 203 -95 473 -172 698 -198 118 -13 390 -13 513 1 381 42 782 202
1095 437 478 360 790 887 883 1492 24 156 24 472 1 625 -101 657 -452 1212
-994 1571 -446 296 -985 423 -1523 358z m476 -125 c394 -38 762 -180 1082
-418 111 -83 330 -300 413 -411 124 -165 230 -359 303 -554 141 -375 168 -817
74 -1221 -67 -291 -223 -607 -415 -845 -81 -100 -268 -281 -371 -359 -234
-177 -541 -320 -818 -381 l-86 -18 -61 28 c-68 30 -99 56 -121 98 -21 40 -36
134 -36 221 0 42 -7 150 -15 241 -8 91 -15 201 -15 246 0 73 3 85 30 127 54
81 262 257 303 257 9 0 50 -5 92 -11 63 -10 75 -14 75 -30 0 -21 24 -25 64 -9
24 9 26 7 26 -15 0 -32 34 -34 65 -5 l21 20 12 -34 c18 -48 41 -54 72 -18 25
28 25 28 44 9 19 -20 19 -20 38 3 10 12 18 29 18 36 0 12 4 12 20 2 27 -17 53
-1 61 38 11 55 29 73 66 67 26 -4 37 -1 47 13 12 15 16 16 29 5 20 -16 54 -6
67 19 10 19 11 19 45 -1 55 -33 123 -4 111 47 -3 13 -9 35 -12 48 -5 22 -2 25
38 31 98 16 115 62 47 127 l-41 39 31 35 c36 41 38 52 11 62 -19 7 -18 10 15
42 39 38 43 54 18 68 -14 9 -14 11 5 21 26 14 30 59 7 67 -12 5 -8 14 20 45
19 22 35 43 35 48 0 12 -26 21 -62 21 -28 0 -29 2 -23 31 9 41 -16 69 -63 69
-27 0 -33 3 -28 16 22 58 13 100 -20 87 -8 -3 -14 1 -14 11 0 8 -14 31 -31 51
l-32 36 27 28 c14 15 26 34 26 43 0 20 -37 48 -62 48 -23 0 -23 2 12 77 17 34
30 70 30 78 0 30 -38 55 -85 55 l-45 0 0 44 c0 82 -23 97 -79 50 -29 -24 -31
-25 -31 -6 0 36 -11 52 -36 52 -21 0 -24 4 -22 33 3 29 0 32 -29 35 -31 3 -33
5 -33 45 0 57 -11 71 -47 64 -26 -5 -31 -2 -49 36 -27 60 -58 58 -101 -6 l-32
-48 -35 70 c-38 75 -60 95 -87 80 -12 -6 -21 -4 -29 6 -21 26 -82 18 -128 -15
l-42 -30 0 29 c0 16 -7 34 -15 41 -21 18 -68 15 -100 -6 -20 -13 -29 -14 -38
-5 -6 6 -35 11 -64 11 -52 0 -53 1 -53 29 0 40 -22 55 -70 48 -36 -5 -41 -3
-46 19 -7 27 -48 64 -71 64 -31 0 -72 -56 -79 -109 -6 -49 -16 -62 -29 -41 -9
15 -51 12 -65 -5 -17 -20 -27 -19 -35 3 -3 11 -17 24 -30 30 -17 8 -25 20 -25
36 0 30 -24 56 -51 56 -12 0 -34 -13 -50 -29 l-29 -30 -25 25 c-13 13 -29 24
-35 24 -19 0 -60 -48 -60 -70 0 -17 -4 -20 -20 -15 -42 13 -80 -23 -80 -75 0
-13 -7 -20 -19 -20 -22 0 -51 -35 -51 -60 0 -12 -8 -15 -33 -12 -45 5 -80 -25
-108 -93 -12 -30 -25 -55 -28 -54 -3 0 -20 19 -36 42 -40 54 -63 54 -93 0 -21
-38 -26 -42 -44 -32 -29 16 -43 -3 -43 -56 0 -44 0 -45 -34 -45 -33 0 -34 -1
-28 -36 5 -30 3 -35 -10 -30 -21 9 -43 -12 -43 -40 l0 -23 -36 24 c-57 39 -66
32 -66 -46 l1 -49 -45 0 c-31 0 -50 -6 -65 -21 -22 -22 -21 -34 17 -113 13
-28 24 -51 24 -52 0 -1 -14 -7 -30 -14 -48 -20 -55 -43 -24 -80 l27 -31 -26
-27 c-14 -15 -27 -36 -29 -47 -3 -17 3 -20 40 -23 40 -3 51 -14 34 -37 -4 -5
-18 -10 -32 -10 -16 0 -28 -8 -35 -22 -7 -16 -15 -21 -27 -17 -15 5 -18 -1
-18 -40 0 -44 -1 -46 -45 -65 -51 -23 -57 -41 -19 -66 l26 -17 -35 -36 c-48
-51 -63 -82 -46 -93 8 -5 26 -9 42 -9 24 0 27 -3 21 -25 -5 -19 -2 -25 11 -25
12 0 15 -5 10 -17 -4 -10 -9 -33 -12 -52 -6 -32 -5 -34 20 -28 14 4 32 10 41
13 14 5 16 -3 16 -53 0 -75 17 -102 53 -86 21 10 26 9 31 -3 5 -12 10 -13 26
-4 20 11 21 9 14 -24 -7 -39 -2 -42 42 -26 15 6 34 8 43 5 11 -4 8 -12 -17
-35 -18 -16 -32 -34 -32 -40 0 -17 65 -40 113 -40 44 0 44 0 50 -40 6 -50 31
-90 56 -90 10 0 32 14 49 32 26 26 34 29 46 19 12 -10 21 -10 47 3 18 9 33 15
34 14 0 -2 6 -15 13 -30 23 -55 86 -29 128 54 22 44 28 49 50 44 13 -4 34 -1
45 5 17 9 20 17 16 44 l-6 34 74 -48 c41 -27 112 -65 159 -84 111 -46 218
-126 263 -194 22 -34 32 -253 23 -497 -5 -116 -11 -218 -14 -226 -3 -8 -12
-61 -20 -117 -16 -114 -35 -156 -86 -190 -43 -30 -85 -29 -227 3 -626 140
-1161 563 -1443 1139 -145 297 -212 590 -212 930 0 200 16 331 62 516 135 543
491 1020 978 1310 383 228 839 331 1278 288z m-380 -2472 c-5 -34 -3 -47 9
-57 13 -11 20 -9 44 14 l29 28 6 -29 c3 -15 10 -59 16 -98 5 -38 12 -85 16
-104 5 -21 3 -32 -3 -30 -14 6 -248 229 -240 229 4 0 17 -6 28 -12 18 -11 23
-10 40 11 10 13 19 34 19 47 0 19 21 42 39 44 2 0 0 -20 -3 -43z m173 -41 c0
-12 -6 -39 -13 -61 l-12 -40 -7 68 c-4 37 -5 73 -1 79 10 15 34 -20 33 -46z
m72 4 c5 0 18 6 29 12 17 11 22 9 35 -10 9 -12 25 -22 36 -22 19 0 19 -2 -6
-34 -29 -38 -69 -148 -79 -218 -7 -49 -21 -62 -30 -30 -11 39 -18 205 -11 269
5 37 10 60 12 51 3 -10 9 -18 14 -18z m228 -76 c-5 -6 -32 -23 -60 -39 l-51
-27 7 23 c17 55 26 70 42 75 10 3 25 9 33 13 17 9 41 -28 29 -45z m99 4 c-3
-23 30 -48 65 -48 15 0 15 -3 5 -20 -11 -18 -10 -23 11 -39 l24 -18 -22 -74
c-13 -41 -29 -84 -36 -95 -8 -12 -50 -47 -95 -78 -44 -31 -112 -86 -150 -122
l-69 -65 5 108 c4 94 17 213 29 279 8 37 45 73 114 109 38 20 79 47 92 61 28
30 31 30 27 2z m-804 -34 c5 -24 12 -34 26 -34 10 0 22 5 25 10 12 19 32 10
91 -44 37 -33 74 -79 94 -118 31 -57 35 -73 38 -161 5 -114 -4 -135 -39 -87
-13 17 -53 51 -89 75 -85 57 -114 89 -139 152 -11 29 -35 80 -51 114 -28 54
-30 63 -17 77 8 10 18 27 21 39 10 31 33 18 40 -23z m-46 -186 c11 -40 19 -74
17 -76 -1 -2 -31 11 -64 28 -41 20 -65 39 -71 56 -14 35 -14 34 25 34 19 0 40
7 47 15 7 8 16 14 19 15 3 0 15 -32 27 -72z m1042 -8 c13 -9 13 -12 -2 -24
-10 -7 -18 -18 -18 -24 0 -6 -10 -16 -21 -23 -20 -10 -21 -9 -15 12 4 13 10
34 13 47 6 24 19 28 43 12z m30 -135 c11 -13 5 -15 -41 -15 -52 1 -53 1 -29
15 33 19 55 19 70 0z"/>
</g>
</svg>
