<?xml version="1.0" standalone="no"?>
<!DOCTYPE svg PUBLIC "-//W3C//DTD SVG 20010904//EN"
 "http://www.w3.org/TR/2001/REC-SVG-20010904/DTD/svg10.dtd">
<svg version="1.0" xmlns="http://www.w3.org/2000/svg"
 width="690.000000pt" height="690.000000pt" viewBox="0 0 690.000000 690.000000"
 preserveAspectRatio="xMidYMid meet">
<metadata>
Created by potrace 1.14, written by Peter Selinger 2001-2017
</metadata>
<g transform="translate(0.000000,690.000000) scale(0.100000,-0.100000)"
fill="#000000" stroke="none">
<path d="M3407 5794 c-1 -1 -49 -5 -107 -8 -58 -3 -114 -8 -126 -10 -12 -2
-45 -7 -75 -11 -30 -4 -56 -8 -59 -10 -3 -2 -25 -6 -50 -10 -25 -4 -48 -9 -52
-11 -4 -3 -16 -7 -26 -9 -77 -14 -229 -65 -342 -113 -90 -38 -272 -130 -280
-142 -3 -3 -12 -10 -20 -14 -39 -18 -181 -116 -212 -145 -9 -9 -31 -27 -50
-41 -54 -40 -260 -250 -319 -325 -30 -38 -75 -99 -100 -135 -24 -36 -47 -66
-51 -68 -5 -2 -8 -8 -8 -13 0 -5 -11 -27 -25 -49 -26 -41 -118 -218 -121 -235
-2 -5 -17 -44 -34 -85 -69 -163 -122 -379 -147 -595 -8 -78 -8 -392 1 -470 43
-374 161 -700 364 -1005 46 -69 88 -126 93 -128 5 -2 9 -10 9 -17 0 -7 3 -15
8 -17 4 -1 22 -21 41 -43 86 -102 235 -246 348 -337 125 -99 342 -225 508
-294 60 -25 119 -49 130 -54 31 -13 174 -54 225 -64 125 -27 178 -36 230 -42
19 -1 62 -6 95 -10 113 -13 416 -6 490 12 11 2 38 6 60 8 59 6 186 34 257 57
35 11 70 21 78 23 8 2 24 7 35 11 92 36 172 65 182 65 6 0 13 3 15 8 2 4 44
27 93 51 82 41 263 146 275 161 3 3 30 24 60 45 113 82 181 145 360 334 57 60
138 175 257 366 25 40 123 246 123 258 0 7 4 17 9 23 8 8 78 214 86 254 2 8 4
15 5 15 1 0 3 12 5 26 2 14 8 43 14 65 5 21 13 59 16 84 3 25 8 52 10 60 19
72 26 412 11 550 -14 138 -13 132 -42 259 -8 36 -17 77 -20 90 -41 188 -187
507 -320 697 -102 147 -133 183 -274 324 -124 125 -159 154 -284 242 -44 32
-86 61 -92 65 -5 5 -21 14 -35 22 -13 8 -46 27 -74 43 -64 37 -172 89 -255
123 -36 14 -74 30 -85 35 -11 4 -29 11 -40 13 -11 3 -51 15 -90 26 -116 36
-265 66 -365 77 -89 9 -309 21 -313 18z m293 -148 c14 -3 45 -9 70 -12 25 -3
52 -7 60 -9 8 -2 31 -7 50 -10 19 -3 69 -15 110 -26 41 -12 80 -22 85 -23 6
-2 17 -6 25 -9 8 -3 38 -13 65 -22 58 -19 84 -30 220 -96 505 -242 908 -704
1084 -1244 38 -117 63 -217 77 -314 4 -25 8 -55 10 -66 22 -114 22 -461 0
-571 -2 -12 -7 -38 -10 -58 -22 -138 -107 -432 -129 -447 -5 -3 -9 -10 -9 -15
-1 -18 -11 -40 -59 -139 -206 -416 -538 -746 -964 -955 -124 -61 -344 -144
-415 -156 -14 -3 -33 -7 -42 -10 -71 -21 -107 -19 -168 9 -127 59 -145 107
-152 409 -2 65 -5 118 -8 118 -3 0 -6 15 -7 33 -16 315 -16 312 2 348 25 47
167 186 244 237 63 41 66 42 125 35 34 -3 71 -7 84 -7 12 0 23 -4 23 -8 1 -4
3 -12 4 -18 1 -5 3 -14 4 -20 0 -5 20 -3 46 4 44 14 45 14 45 -9 0 -33 26 -38
57 -10 l28 23 11 -30 c5 -17 20 -35 32 -39 18 -7 26 -3 43 20 l21 29 21 -21
20 -20 19 22 c10 13 15 27 13 32 -3 5 11 7 31 6 38 -2 48 7 58 53 11 45 30 62
60 50 22 -8 29 -6 43 10 9 10 20 17 25 14 28 -17 58 -13 74 10 15 24 17 24 39
10 32 -21 64 -25 89 -12 37 19 39 27 21 109 -5 21 -2 26 12 26 52 0 73 5 96
23 23 18 25 24 16 50 -6 16 -27 44 -47 61 -30 27 -33 33 -21 43 24 18 51 64
44 76 -3 5 -13 10 -22 10 -10 0 -3 12 21 37 38 40 47 73 20 73 -13 0 -10 6 10
25 22 21 25 28 16 45 -6 11 -16 20 -21 20 -6 0 5 17 25 37 20 21 36 40 36 44
0 14 -28 29 -59 31 -30 2 -32 4 -27 32 8 39 -17 66 -61 66 -31 0 -34 2 -28 23
4 12 9 30 12 40 6 22 -14 48 -31 41 -8 -3 -16 5 -20 19 -3 13 -17 36 -32 50
l-26 26 21 22 c45 48 36 76 -32 101 -25 9 -26 12 -14 27 22 24 47 83 52 119 5
41 -29 66 -86 64 l-39 -2 0 44 c0 82 -23 97 -79 50 -29 -24 -31 -25 -31 -6 0
36 -12 52 -37 52 -22 0 -23 3 -17 35 6 32 4 35 -17 36 -13 1 -30 1 -36 0 -14
-2 -16 6 -15 53 1 47 -14 67 -43 56 -26 -10 -28 -9 -55 45 -8 16 -23 32 -34
33 -20 4 -55 -28 -79 -73 l-15 -29 -33 68 c-38 77 -69 106 -90 84 -10 -12 -16
-10 -37 9 -30 28 -59 23 -121 -19 -40 -27 -43 -28 -38 -9 14 53 -61 82 -117
46 -21 -14 -29 -15 -41 -5 -8 7 -36 13 -61 14 -42 1 -47 4 -51 26 -2 14 -9 31
-16 37 -14 15 -54 19 -79 9 -12 -6 -19 1 -29 28 -16 45 -53 61 -95 43 -25 -11
-42 -43 -50 -95 -5 -35 -24 -70 -24 -45 0 20 -49 21 -67 1 -17 -19 -18 -19
-33 0 -9 10 -26 24 -38 31 -14 7 -22 21 -22 38 0 14 -8 32 -17 39 -31 23 -60
16 -92 -23 -21 -26 -31 -32 -31 -21 0 27 -44 52 -69 38 -26 -13 -44 -47 -37
-66 5 -12 -1 -14 -27 -9 -42 8 -68 -12 -72 -56 -1 -20 -8 -35 -16 -35 -8 -1
-19 -2 -26 -3 -7 0 -17 -18 -23 -38 -11 -35 -14 -38 -48 -37 -20 1 -43 -3 -51
-10 -21 -16 -57 -77 -65 -108 -8 -35 -22 -35 -40 0 -21 40 -52 65 -73 58 -10
-3 -26 -24 -35 -47 -16 -37 -19 -39 -39 -28 -30 16 -48 -9 -45 -61 3 -34 1
-38 -20 -35 -30 3 -57 -25 -44 -45 14 -23 12 -33 -6 -26 -22 9 -44 -11 -44
-40 l0 -23 -36 24 c-56 38 -65 32 -68 -43 -2 -49 -1 -49 -63 -51 -45 -1 -68
-37 -52 -77 30 -75 45 -104 54 -105 6 0 -5 -6 -24 -13 -19 -7 -41 -22 -48 -33
-12 -18 -11 -24 13 -52 l27 -32 -26 -27 c-14 -15 -27 -36 -29 -47 -3 -20 0
-22 55 -24 28 -1 34 -15 18 -40 -7 -11 -13 -12 -23 -4 -16 14 -48 -6 -48 -31
0 -19 -20 -22 -20 -3 -1 7 -6 5 -14 -6 -8 -11 -12 -34 -10 -57 3 -30 0 -40
-10 -40 -21 0 -76 -33 -76 -46 0 -7 12 -19 26 -29 l26 -17 -34 -34 c-19 -19
-41 -45 -48 -60 -12 -22 -12 -27 0 -34 8 -6 28 -10 43 -10 24 0 27 -3 25 -27
-2 -20 1 -27 11 -25 9 2 11 -3 6 -15 -4 -10 -9 -33 -12 -51 -5 -30 -4 -33 18
-28 13 2 32 7 42 11 15 6 17 0 18 -49 2 -73 2 -73 16 -87 9 -9 18 -10 37 -1
19 8 25 8 30 -3 3 -8 13 -11 25 -8 19 5 20 2 15 -26 -7 -35 4 -40 48 -17 22
12 29 12 38 1 9 -10 4 -19 -19 -36 -17 -13 -31 -30 -31 -39 0 -21 54 -40 113
-40 44 0 47 -2 47 -25 0 -38 25 -92 49 -104 18 -10 26 -7 54 22 25 27 37 32
54 26 12 -4 31 -2 48 7 33 17 35 17 35 1 0 -7 7 -22 15 -34 13 -19 19 -21 46
-11 33 11 89 80 89 109 0 15 7 18 39 14 47 -4 65 12 59 54 l-4 29 70 -46 c75
-50 114 -70 185 -96 40 -16 129 -72 177 -113 48 -41 76 -92 80 -145 10 -116 2
-587 -10 -638 -7 -27 -12 -66 -22 -145 -12 -106 -37 -150 -103 -184 -32 -17
-39 -17 -135 0 -312 56 -681 221 -905 404 -133 108 -227 197 -299 283 -20 24
-47 54 -59 67 -13 13 -23 28 -23 34 0 5 -4 11 -8 13 -25 10 -164 232 -225 359
-61 127 -131 317 -144 394 -3 17 -9 38 -14 48 -5 9 -8 17 -5 17 2 0 0 17 -5
38 -5 20 -12 53 -15 72 -3 19 -7 46 -10 60 -8 50 -18 207 -18 300 0 93 11 267
18 279 2 3 6 29 10 58 9 80 70 307 111 413 132 345 370 673 650 895 28 22 52
43 55 46 3 3 48 33 100 67 52 34 100 66 105 70 6 4 33 18 60 32 28 14 64 34
80 45 17 11 31 19 33 17 1 -1 19 5 40 14 101 43 253 98 302 109 8 2 35 8 60
14 25 7 56 14 70 16 14 2 34 6 46 9 12 2 45 7 75 11 30 4 77 11 104 14 56 8
417 5 455 -3z m-434 -2468 c-5 -38 5 -68 24 -68 4 0 19 11 33 26 l25 25 12
-56 c6 -31 10 -59 7 -61 -3 -3 -1 -20 4 -37 4 -18 11 -52 14 -76 l5 -43 -124
118 c-68 66 -121 121 -118 124 2 3 7 -1 9 -7 13 -37 73 7 73 54 0 18 21 41 38
43 2 0 1 -19 -2 -42z m164 -85 c-6 -30 -13 -53 -15 -51 -1 2 -5 27 -8 57 -3
29 -8 56 -11 59 -3 3 -1 11 5 19 10 11 14 10 27 -8 12 -18 13 -30 2 -76z m85
47 c7 0 21 7 30 16 15 15 17 15 22 -5 4 -14 16 -24 34 -28 l28 -5 -23 -32
c-24 -32 -52 -91 -61 -130 -2 -11 -9 -43 -15 -71 -17 -78 -21 -84 -32 -50 -10
33 -18 288 -9 320 5 17 6 18 9 3 2 -10 10 -18 17 -18z m228 -52 c16 -10 -7
-33 -64 -63 l-51 -26 7 23 c17 54 26 69 42 74 10 3 25 9 33 13 9 5 17 4 19 -3
2 -6 9 -14 14 -18z m97 -9 c-14 -26 0 -45 41 -54 24 -6 28 -10 23 -30 -4 -17
0 -26 15 -34 23 -13 23 -18 -4 -109 -18 -64 -58 -118 -104 -142 -14 -7 -30
-16 -35 -21 -83 -65 -137 -112 -157 -136 -13 -16 -29 -32 -35 -35 -11 -7 -11
150 1 237 4 28 8 66 10 85 2 19 4 35 5 35 1 0 3 9 5 19 6 32 37 67 80 90 22
11 42 23 45 26 3 3 17 11 32 19 15 8 39 27 54 42 33 34 39 36 24 8z m-805 -30
c-13 -20 6 -49 31 -47 13 1 24 6 24 10 0 48 147 -92 188 -180 25 -53 29 -73
30 -154 0 -51 -2 -96 -5 -101 -3 -5 -24 11 -47 35 -23 23 -61 54 -85 68 -64
37 -103 84 -136 164 -16 40 -37 83 -46 97 -28 44 -30 60 -9 86 11 14 20 32 20
40 0 11 4 11 20 3 11 -6 18 -15 15 -21z m-48 -201 c13 -39 21 -74 18 -76 -6
-6 -81 32 -111 56 -12 9 -25 27 -28 39 -6 19 -4 21 14 18 23 -4 70 13 70 27 0
4 3 8 8 8 4 0 17 -32 29 -72z m1046 -31 c-12 -5 -23 -18 -26 -28 -3 -11 -13
-19 -22 -19 -13 0 -15 5 -10 18 4 9 10 29 13 44 4 27 4 27 36 11 30 -16 30
-16 9 -26z m31 -112 c18 -14 15 -15 -40 -15 -56 1 -58 1 -34 15 32 18 50 18
74 0z"/>
</g>
</svg>
