<?xml version="1.0" standalone="no"?>
<!DOCTYPE svg PUBLIC "-//W3C//DTD SVG 20010904//EN"
 "http://www.w3.org/TR/2001/REC-SVG-20010904/DTD/svg10.dtd">
<svg version="1.0" xmlns="http://www.w3.org/2000/svg"
 width="700.000000pt" height="700.000000pt" viewBox="0 0 700.000000 700.000000"
 preserveAspectRatio="xMidYMid meet">
<metadata>
Created by potrace 1.14, written by Peter Selinger 2001-2017
</metadata>
<g transform="translate(0.000000,700.000000) scale(0.100000,-0.100000)"
fill="#000000" stroke="none">
<path d="M3420 6490 l0 -290 -70 0 -70 0 0 -75 0 -75 70 0 70 0 0 -140 0 -140
-217 -2 -218 -3 -3 -297 -2 -298 110 0 110 0 0 -140 0 -140 -110 0 -110 0 0
-254 0 -253 -57 -38 c-75 -50 -198 -173 -253 -254 -58 -87 -114 -209 -142
-311 -20 -74 -23 -107 -22 -260 0 -161 2 -182 27 -263 103 -334 326 -568 650
-680 15 -6 17 -22 17 -156 l0 -150 -107 -3 -108 -3 -3 -297 -2 -298 110 0 110
0 0 -140 0 -140 -110 0 -110 0 0 -585 0 -585 80 0 80 0 0 290 0 290 140 0 140
0 0 -290 0 -290 80 0 80 0 0 290 0 290 140 0 140 0 0 -290 0 -290 80 0 80 0 0
585 0 585 -110 0 -110 0 0 140 0 140 110 0 110 0 -2 298 -3 297 -108 3 -108 3
3 150 3 150 71 29 c158 63 322 190 430 333 61 80 137 239 166 347 32 119 32
376 0 491 -63 231 -213 448 -395 573 l-57 39 0 254 0 253 -110 0 -110 0 0 140
0 140 110 0 110 0 -2 298 -3 297 -217 3 -218 2 0 140 0 140 70 0 70 0 0 75 0
75 -70 0 -70 0 0 290 0 290 -80 0 -80 0 0 -290z m440 -1020 l0 -140 -360 0
-360 0 0 140 0 140 360 0 360 0 0 -140z m-220 -440 l0 -140 -140 0 -140 0 0
140 0 140 140 0 140 0 0 -140z m220 -433 l0 -134 -81 23 c-194 57 -420 53
-596 -10 l-43 -15 0 134 0 135 360 0 360 0 0 -133z m-195 -261 c76 -38 143
-105 181 -181 26 -55 29 -69 29 -165 0 -93 -3 -112 -27 -162 -58 -125 -166
-201 -310 -219 -165 -20 -203 -29 -276 -64 -138 -65 -252 -208 -288 -361 -20
-85 -14 -205 13 -286 11 -32 16 -58 12 -58 -14 0 -165 154 -197 201 -227 335
-195 773 76 1061 170 180 377 270 612 265 105 -2 120 -5 175 -31z m403 -181
c120 -109 210 -258 253 -420 31 -112 31 -306 0 -419 -66 -245 -231 -445 -456
-552 -117 -55 -187 -73 -315 -80 -91 -6 -113 -4 -169 16 -81 27 -141 68 -185
126 -152 198 -84 479 140 585 49 24 83 31 172 39 134 12 217 40 308 106 186
132 269 389 194 600 -10 30 -15 54 -11 54 4 0 35 -25 69 -55z m-428 -1755 l0
-130 -140 0 -140 0 0 130 0 129 140 0 140 0 0 -129z m220 -430 l0 -140 -360 0
-360 0 0 140 0 140 360 0 360 0 0 -140z m-220 -440 l0 -140 -140 0 -140 0 0
140 0 140 140 0 140 0 0 -140z m220 -440 l0 -140 -360 0 -360 0 0 140 0 140
360 0 360 0 0 -140z"/>
<path d="M3422 4072 c-40 -37 -49 -82 -25 -130 55 -112 213 -77 213 48 0 34
-6 48 -34 76 -29 29 -41 34 -79 34 -35 0 -51 -6 -75 -28z"/>
<path d="M3451 3167 c-81 -41 -87 -155 -11 -200 47 -28 97 -22 136 17 28 28
34 41 34 78 0 50 -18 82 -60 103 -35 18 -67 19 -99 2z"/>
<path d="M763 5315 c-143 -31 -282 -141 -346 -275 -20 -41 -39 -93 -42 -115
-6 -36 -12 -42 -50 -58 -64 -27 -120 -81 -152 -145 -23 -47 -28 -70 -28 -132
1 -92 30 -156 100 -218 86 -75 40 -72 964 -72 l826 0 61 29 c235 111 218 449
-26 542 -37 14 -76 19 -150 19 l-100 0 -22 47 c-75 160 -278 221 -421 127 -22
-14 -40 -24 -41 -22 -24 44 -89 128 -122 157 -61 54 -153 100 -231 116 -83 18
-138 18 -220 0z m258 -177 c117 -53 192 -157 208 -288 5 -39 15 -78 22 -86 46
-56 138 -23 139 49 1 103 126 172 213 118 38 -23 67 -74 67 -114 0 -14 11 -39
24 -54 24 -28 25 -28 178 -33 170 -6 183 -10 218 -73 41 -73 8 -161 -73 -192
-38 -14 -126 -15 -832 -13 -743 3 -793 4 -818 21 -64 42 -86 131 -47 194 22
37 58 58 117 68 56 9 71 29 83 113 21 153 111 262 253 308 65 21 181 13 248
-18z"/>
<path d="M5341 3124 c-179 -48 -334 -206 -371 -380 -10 -45 -14 -50 -54 -67
-178 -73 -236 -297 -118 -452 22 -28 60 -61 92 -79 l55 -31 850 0 850 0 50 27
c60 31 104 77 136 138 35 67 34 186 -3 256 -34 64 -105 128 -165 148 -31 11
-82 16 -149 16 l-102 0 -13 37 c-18 55 -113 146 -173 166 -90 31 -195 17 -266
-33 l-28 -20 -27 45 c-108 185 -356 285 -564 229z m279 -175 c111 -52 192
-168 206 -294 8 -73 32 -105 81 -105 45 0 70 28 79 87 5 37 16 57 44 86 35 34
42 37 95 37 53 0 60 -3 95 -37 28 -29 39 -49 44 -84 12 -83 14 -83 188 -89
126 -4 159 -8 181 -23 87 -57 89 -186 4 -237 -31 -19 -56 -20 -840 -20 -903 0
-844 -5 -886 70 -52 92 3 189 116 206 57 8 78 36 86 114 15 143 104 254 245
307 61 22 196 13 262 -18z"/>
</g>
</svg>
