<?xml version="1.0" encoding="UTF-8" standalone="no"?>
<svg
   xmlns:dc="http://purl.org/dc/elements/1.1/"
   xmlns:cc="http://creativecommons.org/ns#"
   xmlns:rdf="http://www.w3.org/1999/02/22-rdf-syntax-ns#"
   xmlns:svg="http://www.w3.org/2000/svg"
   xmlns="http://www.w3.org/2000/svg"
   xmlns:xlink="http://www.w3.org/1999/xlink"
   xmlns:sodipodi="http://sodipodi.sourceforge.net/DTD/sodipodi-0.dtd"
   xmlns:inkscape="http://www.inkscape.org/namespaces/inkscape"
   id="svg4090"
   viewBox="0 0 534.97 490.47"
   version="1.1"
   sodipodi:docname="trinity-4.svg"
   inkscape:version="0.92.5 (2060ec1f9f, 2020-04-08)">
  <sodipodi:namedview
     pagecolor="#ffffff"
     bordercolor="#666666"
     borderopacity="1"
     objecttolerance="10"
     gridtolerance="10"
     guidetolerance="10"
     inkscape:pageopacity="0"
     inkscape:pageshadow="2"
     inkscape:window-width="1920"
     inkscape:window-height="1034"
     id="namedview13"
     showgrid="false"
     inkscape:pagecheckerboard="true"
     inkscape:zoom="1.3609574"
     inkscape:cx="330.68539"
     inkscape:cy="228.14662"
     inkscape:window-x="1920"
     inkscape:window-y="23"
     inkscape:window-maximized="0"
     inkscape:current-layer="layer1" />
  <defs
     id="defs4092">
    <linearGradient
       id="linearGradient4048">
      <stop
         id="stop4050"
         stop-color="#ff0"
         offset="0" />
      <stop
         id="stop4052"
         stop-color="#ff0200"
         offset="1" />
    </linearGradient>
    <linearGradient
       id="linearGradient4086"
       x1="-945.1"
       xlink:href="#linearGradient4048"
       gradientUnits="userSpaceOnUse"
       x2="-947.92"
       gradientTransform="translate(1357.5 -565.5)"
       y1="557.16"
       y2="1257" />
    <linearGradient
       id="linearGradient4088"
       x1="-928.08"
       xlink:href="#linearGradient4048"
       gradientUnits="userSpaceOnUse"
       x2="-952.42"
       gradientTransform="translate(1357.5 -565.5)"
       y1="1249.7"
       y2="-20.779" />
  </defs>
  <g
     id="layer1"
     transform="translate(-149.66,10.469)">
    <path
       style="color:#000000;text-indent:0;text-transform:none;fill:none;stroke:#fffffd;stroke-width:1;stroke-miterlimit:4;stroke-dasharray:none;stroke-dashoffset:0;stroke-opacity:1"
       d="m 467.5515,164.8419 c 4.4438,27.891 3.5501,54.911 -1.9375,80.375 -0.0101,-0.002 -0.0211,0.002 -0.0312,0 -1.4709,12.826 -6.7447,26.225 -11.75,37.5 -4.5864,11.028 -9.9659,21.659 -16.281,31.75 -3.5116,5.6111 -7.3326,11.044 -11.375,16.313 7.6605,9.0019 9.8912,12.917 24.594,25.438 5.9188,-7.4224 11.444,-15.158 16.469,-23.188 9.0509,-14.462 16.408,-29.916 22.312,-46.031 0.0849,0.0267 0.16509,0.067 0.25,0.0937 3.5452,-11.138 7.935,-27.076 10.375,-40.219 l 1.0938,-5.875 0.25,0.0937 c 2.8951,-17.953 3.8928,-36.47 2.8125,-55.344 -10.588,-8.5268 -22.043,-15.971 -36.781,-20.906 z"
       id="path830"
       inkscape:connector-curvature="0" />
    <path
       style="color:#000000;text-indent:0;text-transform:none;fill:none;stroke:#fffffd;stroke-width:1;stroke-miterlimit:4;stroke-dasharray:none;stroke-dashoffset:0;stroke-opacity:1"
       d="m 508.2395,256.5919 c -2.5856,11.857 -5.972,24.312 -8.9688,33.719 23.392,8.4829 45.581,20.706 65.625,36.531 -0.009,0.042 -0.0223,0.083 -0.0312,0.125 9.6423,8.2509 18.669,15.084 26.281,24.031 0.81549,0.9585 1.6296,1.9268 2.4062,2.9375 0.0241,-0.072 0.0385,-0.147 0.0625,-0.2187 17.092,18.946 31.715,41.209 42.844,66.844 -23.612,2.4854 -46.099,2.101 -67.281,-0.75 -10.829,8.8471 -20.905,18.212 -32.844,29.125 38.863,9.3387 81.807,11.076 127.44,3.1563 l 20.188,-3.5 -6.625,-19.406 c -16.135,-47.138 -42.412,-85.857 -74.781,-115.78 -11.049,-9.5662 -22.361,-18.741 -34.812,-27.344 0.002,0.0313 -0.002,0.0625 0,0.0937 -18.711,-12.332 -38.704,-22.226 -59.5,-29.562 z"
       id="path826"
       inkscape:connector-curvature="0" />
    <path
       style="color:#000000;text-indent:0;text-transform:none;fill:none;stroke:#fffffd;stroke-width:1;stroke-miterlimit:4;stroke-dasharray:none;stroke-dashoffset:0;stroke-opacity:1"
       d="m 387.8295,287.9039 c -15.943,1.97 -19.749,2.1619 -34.781,7.3438 4.4539,10.813 9.5863,21.318 15.5,31.375 7.741,13.165 16.809,25.531 26.812,37.156 -0.022,0.019 -0.0405,0.043 -0.0625,0.062 7.6405,8.409 18.362,18.989 27.75,27.25 l 5.4688,4.8125 -0.1875,0.094 c 13.154,10.668 27.499,20.146 42.844,28.281 4.9994,-1.7048 14.028,-6.4891 22,-11.438 4.1281,-2.5624 8.0432,-5.1619 11.125,-7.4063 1.0669,-0.7769 1.9973,-1.499 2.8438,-2.1875 -23.556,-9.8569 -44.565,-23.262 -62.781,-39.281 0.01,-0.011 0.0216,-0.02 0.0312,-0.031 -14.304,-12.172 -18.101,-17.437 -24.594,-25.188 -0.4469,-0.5335 -0.80329,-1.0014 -1.2812,-1.5625 -7.3063,-8.9474 -13.948,-18.392 -19.781,-28.312 -3.9916,-6.7883 -7.6321,-13.791 -10.906,-20.969 z"
       id="path824"
       inkscape:connector-curvature="0" />
    <path
       style="color:#000000;text-indent:0;text-transform:none;fill:none;stroke:#fffffd;stroke-width:1;stroke-miterlimit:4;stroke-dasharray:none;stroke-dashoffset:0;stroke-opacity:1"
       d="m 226.7395,320.6849 c -28.27,28.389 -52.056,64.417 -68.875,108.28 l -7.5312,19.656 20.719,3.8125 c 48.961,9.0063 95.448,6.6365 137.44,-4.5625 v -0.031 c 31.387,-10.372 67.251,-34.859 102.84,-54.031 -8.4056,-7.7154 -17.053,-16.288 -23.688,-23.594 -19.473,15.582 -41.859,28.249 -66.594,37.281 -0.011,-0.01 -0.0203,-0.022 -0.0313,-0.031 -14.447,6.4957 -27.783,9.3958 -38.562,10.656 0.02,0.022 0.043,0.041 0.062,0.062 -26.044,5.0166 -53.983,6.3479 -83.375,3.0625 10.589,-22.803 23.258,-42.715 37.5,-59.938 -0.6093,-1.8637 -1.1957,-3.7116 -1.75,-5.5312 -4.2818,-14.058 -6.9178,-26.33 -8.1562,-35.094 z"
       id="path822"
       inkscape:connector-curvature="0" />
  </g>
  <metadata
     id="metadata10">
    <rdf:RDF>
      <cc:Work>
        <dc:format>image/svg+xml</dc:format>
        <dc:type
           rdf:resource="http://purl.org/dc/dcmitype/StillImage" />
        <cc:license
           rdf:resource="http://creativecommons.org/publicdomain/zero/1.0/" />
        <dc:publisher>
          <cc:Agent
             rdf:about="http://openclipart.org/">
            <dc:title>Openclipart</dc:title>
          </cc:Agent>
        </dc:publisher>
        <dc:title></dc:title>
        <dc:date>2013-10-21T23:35:40</dc:date>
        <dc:description>Celtic trinity knot, with gradient</dc:description>
        <dc:source>https://openclipart.org/detail/185289/celtic-trinity-knot-by-techwriter-185289</dc:source>
        <dc:creator>
          <cc:Agent>
            <dc:title>techwriter</dc:title>
          </cc:Agent>
        </dc:creator>
        <dc:subject>
          <rdf:Bag>
            <rdf:li>Irish</rdf:li>
            <rdf:li>celtic</rdf:li>
            <rdf:li>trinity</rdf:li>
          </rdf:Bag>
        </dc:subject>
      </cc:Work>
      <cc:License
         rdf:about="http://creativecommons.org/publicdomain/zero/1.0/">
        <cc:permits
           rdf:resource="http://creativecommons.org/ns#Reproduction" />
        <cc:permits
           rdf:resource="http://creativecommons.org/ns#Distribution" />
        <cc:permits
           rdf:resource="http://creativecommons.org/ns#DerivativeWorks" />
      </cc:License>
    </rdf:RDF>
  </metadata>
</svg>
