<?xml version="1.0" standalone="no"?>
<!DOCTYPE svg PUBLIC "-//W3C//DTD SVG 20010904//EN"
 "http://www.w3.org/TR/2001/REC-SVG-20010904/DTD/svg10.dtd">
<svg version="1.0" xmlns="http://www.w3.org/2000/svg"
 width="342.000000pt" height="171.000000pt" viewBox="0 0 342.000000 171.000000"
 preserveAspectRatio="xMidYMid meet">
<metadata>
Created by potrace 1.16, written by Peter Selinger 2001-2019
</metadata>
<g transform="translate(0.000000,171.000000) scale(0.100000,-0.100000)"
fill="#000000" stroke="none">
<path d="M0 1410 l0 -300 406 0 c241 0 404 -4 402 -9 -1 -5 -178 -150 -393
-321 -215 -172 -391 -313 -392 -314 -2 -2 342 -433 368 -460 11 -12 106 60
678 517 l484 387 157 0 157 0 484 -387 c631 -503 666 -530 682 -511 259 317
364 454 355 463 -2 2 -176 141 -388 310 -212 168 -386 310 -388 316 -2 5 153
9 402 9 l406 0 0 300 0 300 -1710 0 -1710 0 0 -300z m1240 74 c6 -14 10 -27
10 -29 0 -3 -39 -36 -87 -75 l-88 -70 -437 0 -438 0 0 100 0 100 515 0 515 0
10 -26z m720 18 c0 -4 -28 -93 -63 -198 l-63 -189 -125 0 -124 0 -62 185 c-34
102 -62 191 -62 198 -1 9 55 12 249 12 138 0 250 -4 250 -8z m1260 -92 l0
-100 -438 0 -437 0 -88 70 c-48 39 -87 72 -87 75 0 2 4 15 10 29 l10 26 515 0
515 0 0 -100z m-611 -581 l490 -392 -15 -27 c-9 -14 -35 -48 -58 -74 l-42 -49
-472 377 c-260 207 -472 382 -472 388 0 6 12 49 27 95 18 54 32 82 39 79 7 -3
233 -181 503 -397z m-1255 313 c14 -42 26 -83 26 -89 0 -12 -929 -763 -943
-763 -4 0 -32 32 -64 71 l-57 71 29 25 c34 27 680 541 850 675 61 48 115 88
122 88 6 0 23 -35 37 -78z"/>
</g>
</svg>
