<?xml version="1.0" encoding="UTF-8" standalone="no"?>
<svg
   version="1.0"
   width="512.09998pt"
   height="256.52066pt"
   viewBox="0 0 512.09998 256.52066"
   preserveAspectRatio="xMidYMid"
   id="svg59"
   sodipodi:docname="belt-mod.svg"
   inkscape:version="1.2.2 (b0a8486541, 2022-12-01)"
   xmlns:inkscape="http://www.inkscape.org/namespaces/inkscape"
   xmlns:sodipodi="http://sodipodi.sourceforge.net/DTD/sodipodi-0.dtd"
   xmlns="http://www.w3.org/2000/svg"
   xmlns:svg="http://www.w3.org/2000/svg">
  <defs
     id="defs63">
    <linearGradient
       id="linearGradient934"
       inkscape:swatch="solid">
      <stop
         style="stop-color:#000000;stop-opacity:1;"
         offset="0"
         id="stop932" />
    </linearGradient>
  </defs>
  <sodipodi:namedview
     id="namedview61"
     pagecolor="#ffffff"
     bordercolor="#666666"
     borderopacity="1.0"
     inkscape:showpageshadow="2"
     inkscape:pageopacity="0.0"
     inkscape:pagecheckerboard="false"
     inkscape:deskcolor="#d1d1d1"
     inkscape:document-units="pt"
     showgrid="false"
     showborder="true"
     shape-rendering="auto"
     inkscape:zoom="1.9874049"
     inkscape:cx="341.65157"
     inkscape:cy="171.07737"
     inkscape:window-width="1920"
     inkscape:window-height="1011"
     inkscape:window-x="0"
     inkscape:window-y="0"
     inkscape:window-maximized="1"
     inkscape:current-layer="svg59" />
  <metadata
     id="metadata53">
Created by potrace 1.16, written by Peter Selinger 2001-2019
</metadata>
  <path
     d="m 0.05,45.05 v 45 l 61.6,0.2 61.5,0.3 -53.7,43 c -29.6,23.6 -56.6,45.3 -60.1,48.2 l -6.3,5.1 27.6,34.4 c 15.1,18.8 28.1,34.7 28.9,35.2 1,0.7 23.6,-16.9 87.1,-67.7 l 85.7,-68.7 h 23.7 23.7 l 85.7,68.7 c 63.6,50.9 86.1,68.4 87.1,67.7 0.8,-0.5 13.8,-16.4 29,-35.4 22.2,-27.6 27.4,-34.6 26.3,-35.5 -0.8,-0.5 -27.9,-22.2 -60.2,-48 l -58.7,-47 61.5,-0.3 61.6,-0.2 v -45 -45 h -256 -256 z m 186,-10.5 c 0.7,2.5 1.1,4.7 0.9,4.9 -0.2,0.1 -6.1,4.8 -13.1,10.4 l -12.7,10.2 h -65.6 -65.5 v -15 -15 h 77.4 77.3 z m 108,-3.8 c 0,0.4 -4.4,13.9 -9.7,30 l -9.8,29.3 h -18.5 -18.5 l -9.8,-29.3 c -5.3,-16.1 -9.7,-29.6 -9.7,-30 0,-0.4 17.1,-0.7 38,-0.7 20.9,0 38,0.3 38,0.7 z m 188,14.3 v 15 h -65.5 -65.6 l -12.7,-10.2 c -7,-5.6 -12.9,-10.3 -13.1,-10.4 -0.2,-0.2 0.2,-2.4 0.9,-4.9 l 1.3,-4.5 h 77.3 77.4 z m -278.8,41 4.5,13.6 -71.4,57.2 -71.3,57.1 -9,-11.1 c -4.9,-6.2 -8.8,-11.3 -8.7,-11.4 4.7,-4.6 150.3,-120.2 150.8,-119.6 0.3,0.4 2.7,6.8 5.1,14.2 z m 186.8,45.5 c 40.4,32.3 73.8,59 74.2,59.4 0.4,0.4 -3.3,5.7 -8.2,11.8 l -8.9,11.2 -71.4,-57.2 -71.4,-57.1 4.3,-13 c 2.4,-7.2 4.6,-13.7 4.9,-14.5 0.4,-0.9 0.9,-1 1.8,-0.4 0.6,0.5 34.3,27.4 74.7,59.8 z"
     id="path55"
     style="fill:#000000;fill-opacity:1;stroke:#6a0835;stroke-width:0.1;stroke-opacity:1;paint-order:stroke markers fill"
     inkscape:label="belt" />
  <path
     style="fill:#ffff00;stroke-width:0.503169"
     d="M 81.611696,278.34646 C 75.085049,270.34218 64.740153,257.14035 64.126577,256.0325 63.584616,255.05396 64.471722,254.30956 102.23318,224.05634 160.45456,177.41131 257.8731,100.4495 262.69144,97.2924 c 0.68858,-0.451176 1.35253,-0.719754 1.47545,-0.596838 0.43462,0.434624 5.67548,15.388158 8.73578,24.925438 1.70587,5.31627 3.22785,9.995 3.38217,10.39717 0.19623,0.51135 -22.53831,19.00553 -75.6092,61.50684 -41.73939,33.42659 -84.43279,67.62228 -94.87423,75.99042 l -18.984428,15.21479 z"
     id="path298"
     transform="scale(0.75)" />
  <path
     style="fill:#ffff00;stroke-width:0.503169"
     d="m 304.46504,81.890711 c -6.86305,-20.824896 -12.66487,-38.471916 -12.89293,-39.2156 -0.40823,-1.331228 -0.37045,-1.358195 2.4414,-1.742597 3.72647,-0.509439 91.04647,-0.509439 94.77295,0 2.81105,0.384294 2.84955,0.411745 2.44377,1.742597 -0.22676,0.743684 -6.02918,18.390704 -12.89429,39.2156 l -12.48201,37.863449 h -24.45531 -24.45531 z"
     id="path300"
     transform="scale(0.75)" />
  <path
     style="fill:#ffff00;stroke-width:0.503169"
     d="m 501.87654,209.25667 c -51.87043,-41.50922 -94.59864,-75.75522 -94.95159,-76.10223 -0.51891,-0.51019 0.50334,-4.05584 5.34167,-18.52749 3.29086,-9.8431 6.14983,-18.165863 6.35326,-18.495023 0.20344,-0.329161 0.67487,-0.481437 1.04764,-0.338391 0.49443,0.189729 189.84457,151.487664 197.91161,158.138854 l 1.19742,0.98727 -1.40478,2.23191 c -1.77643,2.82238 -6.90901,9.59403 -14.91973,19.68426 l -6.26563,7.89214 z"
     id="path302"
     transform="scale(0.75)" />
  <path
     style="fill:#ffff00;stroke-width:0.503169"
     d="M 451.24404,66.290765 C 437.42873,55.282853 434.03257,52.343962 434.01051,51.377632 c -0.0151,-0.661925 0.592,-3.435642 1.34914,-6.163817 l 1.37663,-4.960317 h 102.7793 102.7793 v 19.875165 19.875165 l -86.92239,-0.0017 -86.9224,-0.0017 z"
     id="path304"
     transform="scale(0.75)" />
  <path
     style="fill:#ffff00;stroke-width:0.503169"
     d="M 40.505083,60.128663 V 40.253498 h 102.779307 102.7793 l 1.37662,4.960317 c 0.75715,2.728175 1.36504,5.501892 1.35089,6.163817 -0.0207,0.967121 -3.40553,3.896385 -17.23353,14.914053 l -17.20779,13.710553 -86.9224,7.95e-4 -86.922397,7.95e-4 z"
     id="path306"
     transform="scale(0.75)" />
  <path
     style="fill:#ffffff;stroke-width:0.503169"
     d="m 80.643917,276.64168 c -3.432229,-4.2339 -8.531114,-10.64153 -11.330856,-14.23919 l -5.09044,-6.54119 1.34941,-1.43772 c 2.049368,-2.18349 15.997721,-13.50113 54.433709,-44.16734 75.69571,-60.39391 142.70832,-113.144675 143.73479,-113.144675 0.55276,0 1.16845,1.677246 7.2734,19.814005 4.17314,12.39769 4.94264,15.14158 4.38835,15.64799 -4.98929,4.55836 -25.54211,21.15308 -110.86611,89.5153 -40.40444,32.37235 -74.405201,59.62202 -75.557233,60.55482 l -2.094603,1.69599 z"
     id="path459"
     transform="scale(0.75)" />
  <path
     style="fill:#ffffff;stroke-width:0.503169"
     d="m 316.99881,119.13004 c -0.12166,-0.34859 -5.88128,-17.83883 -12.79914,-38.867197 -8.50731,-25.859836 -12.41269,-38.39864 -12.06734,-38.743993 0.70527,-0.705269 97.82772,-0.707586 98.53295,-0.0023 0.34222,0.342218 -3.65622,13.163123 -12.23995,39.247161 l -12.74819,38.738909 -24.22857,0.13064 c -19.12296,0.1031 -24.27517,-0.003 -24.44976,-0.50317 z"
     id="path461"
     transform="scale(0.75)" />
  <path
     style="fill:#ffffff;stroke-width:0.503169"
     d="m 453.5684,67.73725 c -8.41964,-6.746618 -16.15753,-13.060476 -17.19532,-14.030795 -2.42037,-2.263022 -2.42177,-2.448389 -0.082,-10.811321 l 0.73907,-2.641636 h 102.63237 102.63236 v 19.875165 19.875165 h -86.70902 -86.70903 z"
     id="path463"
     transform="scale(0.75)" />
  <path
     style="fill:#ffffff;stroke-width:0.503169"
     d="m 501.508,208.57829 -94.63143,-75.7437 0.95214,-3.39541 c 0.87168,-3.10849 9.95963,-30.408279 10.80356,-32.453407 0.19985,-0.4843 0.50896,-0.880334 0.68691,-0.880076 0.40442,5.89e-4 28.81338,22.623913 124.00566,98.751243 52.61961,42.08104 74.79092,60.09745 74.59269,60.61402 -0.58149,1.51533 -5.52504,8.26015 -13.36441,18.23394 -4.45097,5.66284 -8.1649,10.36831 -8.25319,10.45659 -0.0883,0.0883 -42.74465,-33.92416 -94.79193,-75.5832 z"
     id="path465"
     transform="scale(0.75)" />
  <path
     style="fill:#ffffff;stroke-width:0.503169"
     d="M 40.505083,60.128663 V 40.253498 H 143.13745 245.76981 l 0.73908,2.641636 c 1.48769,5.317374 1.79932,6.692995 1.80207,7.954733 0.004,1.576166 -0.94857,2.416735 -20.05441,17.706873 L 213.9528,80.003828 H 127.22894 40.505083 Z"
     id="path467"
     transform="scale(0.75)" />
</svg>
