<?xml version="1.0" standalone="no"?>
<!DOCTYPE svg PUBLIC "-//W3C//DTD SVG 20010904//EN"
 "http://www.w3.org/TR/2001/REC-SVG-20010904/DTD/svg10.dtd">
<svg version="1.0" xmlns="http://www.w3.org/2000/svg"
 width="512.000000pt" height="257.000000pt" viewBox="0 0 512.000000 257.000000"
 preserveAspectRatio="xMidYMid meet">
<metadata>
Created by potrace 1.16, written by Peter Selinger 2001-2019
</metadata>
<g transform="translate(0.000000,257.000000) scale(0.100000,-0.100000)"
fill="#000000" stroke="none">
<path d="M0 2120 l0 -450 303 -1 c166 -1 441 -4 610 -8 l308 -6 -595 -478
-596 -478 263 -326 c144 -179 271 -337 283 -351 l21 -26 34 24 c66 46 311 240
1001 792 l696 558 232 0 232 0 771 -618 c719 -575 943 -751 958 -752 12 0 524
641 547 686 11 20 -27 53 -579 495 l-590 474 308 6 c169 4 444 7 611 8 l302 1
0 450 0 450 -2560 0 -2560 0 0 -450z m1859 104 c7 -26 8 -50 4 -54 -4 -4 -63
-50 -129 -104 l-121 -96 -657 0 -656 0 0 150 0 150 774 0 774 0 11 -46z m1053
37 l26 -6 -96 -292 -96 -293 -186 0 -186 0 -96 293 -96 292 26 6 c15 4 173 7
352 7 179 0 337 -3 352 -7z m1908 -141 l0 -150 -656 0 -657 0 -121 96 c-66 54
-125 100 -129 104 -4 4 -3 28 4 54 l11 46 774 0 774 0 0 -150z m-1346 -527
c826 -662 1142 -916 1155 -929 14 -13 -5 -42 -146 -221 -10 -14 -114 66 -720
552 -389 312 -709 574 -711 581 -2 8 13 65 34 127 39 118 51 147 61 147 3 0
150 -116 327 -257z m-1445 123 c24 -69 41 -131 39 -139 -1 -8 -282 -239 -623
-512 -341 -274 -658 -529 -705 -566 -46 -38 -87 -69 -90 -69 -5 1 -148 182
-164 208 -6 11 -2 21 16 36 273 227 1460 1166 1474 1166 6 0 30 -56 53 -124z"/>
</g>
</svg>
